<svg width="30" height="36" viewBox="0 0 30 36" fill="none" xmlns="http://www.w3.org/2000/svg">
<g filter="url(#filter0_d_2_778)">
<path d="M4.15317 3.94953C4.15317 3.69354 4.14013 3.43816 4.16187 3.18587C4.16685 3.12418 4.27124 3.03967 4.3483 3.01562C4.44276 2.98601 4.55337 3.0076 4.65901 3.0076H25.2311C25.3734 3.0076 25.5157 3.0224 25.7196 3.0335C25.7196 3.75337 25.7065 4.45227 25.7196 5.14685C25.7552 6.76054 25.7987 8.37402 25.8501 9.9873C25.8594 10.2883 25.7488 10.4444 25.4362 10.466C25.3318 10.4734 25.2293 10.5382 25.1292 10.5838C24.8229 10.7238 24.6625 10.6177 24.5637 10.2982C24.4284 9.83379 24.2581 9.38015 24.0542 8.94112C23.7878 8.38583 23.4884 7.84677 23.1575 7.32681C22.4776 6.26274 21.5579 5.49599 20.3455 5.04445C19.819 4.8542 19.2615 4.76219 18.7012 4.77303C17.3031 4.77303 15.9049 4.76255 14.506 4.75638C13.9673 4.75329 13.9318 4.77118 13.9169 5.32327C13.8859 6.47432 13.8728 7.62599 13.8548 8.77765C13.8163 10.9342 13.7786 13.0905 13.7417 15.2466C13.7342 15.6883 13.7417 15.7055 14.1848 15.6864C15.2896 15.6389 16.3995 15.6247 17.4957 15.4977C18.1401 15.423 18.6354 14.9795 18.9871 14.4305C19.3861 13.8044 19.6862 13.1351 19.7987 12.3949C19.8689 11.9341 20.358 11.6923 20.7992 11.9107C20.8538 11.9378 20.8918 12.0383 20.8998 12.1093C20.9093 12.253 20.9109 12.3972 20.9048 12.5411C20.9048 15.1528 20.9048 17.7642 20.9048 20.3751V20.7656C20.6165 20.7656 20.3281 20.8162 20.0752 20.7446C19.9509 20.7089 19.8347 20.4603 19.8005 20.2912C19.634 19.4536 19.337 18.6788 18.7783 18.02C18.3203 17.479 17.7499 17.1521 17.0197 17.1206C16.1099 17.0817 15.202 17.0182 14.2923 16.9794C13.7827 16.9571 13.7398 17.0077 13.7429 17.5105C13.7504 18.7133 13.7473 19.9162 13.7771 21.1191C13.802 22.1344 13.8337 23.1516 13.9262 24.1626C14.0008 24.9793 14.0903 25.7954 14.3432 26.5936C14.5831 27.3487 14.9603 27.9507 15.6936 28.2783C15.9421 28.3887 16.2187 28.4331 16.4865 28.4862C16.8473 28.5669 17.2127 28.6252 17.5808 28.6607C17.8257 28.6786 17.912 28.7841 17.9195 28.9988C17.9232 29.1221 17.9524 29.2572 17.912 29.3652C17.8609 29.462 17.7768 29.5377 17.6747 29.5786C17.597 29.6138 17.4882 29.5879 17.3981 29.5879C13.1199 29.5879 8.84159 29.5864 4.56331 29.5835C4.4353 29.5835 4.20227 29.5286 4.19605 29.4787C4.16747 29.2319 4.19605 28.9741 4.21283 28.7212C4.21283 28.7033 4.27995 28.6817 4.31847 28.6749C4.62048 28.6206 4.92249 28.5663 5.22575 28.5164C6.25668 28.3486 7.01606 27.8903 7.38208 26.833C7.69838 25.92 7.80464 24.9972 7.85622 24.0473C8.11162 19.2845 8.04948 14.5169 7.95316 9.74982C7.93203 8.6697 7.79843 7.58589 7.63064 6.5175C7.54448 5.91548 7.28561 5.3508 6.88494 4.89085C6.48412 4.44055 5.97891 4.208 5.39353 4.12595C4.99396 4.07105 4.59935 4.01307 4.15317 3.94953Z" fill="white"/>
</g>
<defs>
<filter id="filter0_d_2_778" x="0.0604029" y="0.955555" width="29.8791" height="34.7749" filterUnits="userSpaceOnUse" color-interpolation-filters="sRGB">
<feFlood flood-opacity="0" result="BackgroundImageFix"/>
<feColorMatrix in="SourceAlpha" type="matrix" values="0 0 0 0 0 0 0 0 0 0 0 0 0 0 0 0 0 0 127 0" result="hardAlpha"/>
<feOffset dy="2.04444"/>
<feGaussianBlur stdDeviation="2.04444"/>
<feComposite in2="hardAlpha" operator="out"/>
<feColorMatrix type="matrix" values="0 0 0 0 0 0 0 0 0 0 0 0 0 0 0 0 0 0 0.15 0"/>
<feBlend mode="normal" in2="BackgroundImageFix" result="effect1_dropShadow_2_778"/>
<feBlend mode="normal" in="SourceGraphic" in2="effect1_dropShadow_2_778" result="shape"/>
</filter>
</defs>
</svg>
