<svg preserveAspectRatio="none" width="104" height="19" viewBox="0 0 104 19" fill="none" xmlns="http://www.w3.org/2000/svg">
<path d="M0.267517 -0.000244141C3.35588 -0.000244141 4.95307 0.323202 4.95307 5.28538C4.95307 10.2476 7.98867 18.6086 18.8512 18.6086H84.6512C95.5136 18.6086 98.5493 10.2476 98.5493 5.28538C98.5493 0.323202 100.146 -0.000244141 103.235 -0.000244141H0.267517Z" fill="black"/>
<path d="M19.6503 10.0475C21.8396 10.0475 23.6145 8.26959 23.6145 6.07638C23.6145 3.88317 21.8396 2.10522 19.6503 2.10522C17.4609 2.10522 15.6861 3.88317 15.6861 6.07638C15.6861 8.26959 17.4609 10.0475 19.6503 10.0475Z" fill="#161616"/>
<path d="M19.6507 8.5254C21.0012 8.5254 22.0959 7.42873 22.0959 6.07593C22.0959 4.72313 21.0012 3.62646 19.6507 3.62646C18.3003 3.62646 17.2056 4.72313 17.2056 6.07593C17.2056 7.42873 18.3003 8.5254 19.6507 8.5254Z" fill="#0A0D13"/>
<path d="M19.6507 7.94256C20.6796 7.94256 21.5137 7.10699 21.5137 6.07626C21.5137 5.04553 20.6796 4.20996 19.6507 4.20996C18.6217 4.20996 17.7876 5.04553 17.7876 6.07626C17.7876 7.10699 18.6217 7.94256 19.6507 7.94256Z" fill="#091427"/>
<g filter="url(#filter0_f_5_8505)">
<path fill-rule="evenodd" clip-rule="evenodd" d="M18.3679 4.82812C18.147 4.85142 17.833 5.18921 17.8098 5.85314C17.7865 6.51707 18.0772 6.87815 18.24 6.87815C18.4028 6.87815 19.0772 5.91138 18.3679 4.82812H18.3679Z" fill="#235A91" fill-opacity="0.556075"/>
</g>
<g filter="url(#filter1_f_5_8505)">
<path fill-rule="evenodd" clip-rule="evenodd" d="M19.9549 4.59511C19.6065 4.70253 19.5394 5.26644 19.5528 5.58868C19.5662 5.91092 20.022 6.7568 20.5715 6.56883C21.121 6.38085 21.2148 5.68267 20.987 5.21274C20.7591 4.74281 20.3436 4.40714 19.9549 4.59511V4.59511Z" fill="#235A91" fill-opacity="0.556075"/>
</g>
<defs>
<filter id="filter0_f_5_8505" x="17.6881" y="4.70779" width="1.11836" height="2.29073" filterUnits="userSpaceOnUse" color-interpolation-filters="sRGB">
<feFlood flood-opacity="0" result="BackgroundImageFix"/>
<feBlend mode="normal" in="SourceGraphic" in2="BackgroundImageFix" result="shape"/>
<feGaussianBlur stdDeviation="0.0601697" result="effect1_foregroundBlur_5_8505"/>
</filter>
<filter id="filter1_f_5_8505" x="19.4309" y="4.42165" width="1.79206" height="2.29439" filterUnits="userSpaceOnUse" color-interpolation-filters="sRGB">
<feFlood flood-opacity="0" result="BackgroundImageFix"/>
<feBlend mode="normal" in="SourceGraphic" in2="BackgroundImageFix" result="shape"/>
<feGaussianBlur stdDeviation="0.0601697" result="effect1_foregroundBlur_5_8505"/>
</filter>
</defs>
</svg>
