<svg preserveAspectRatio="none" width="253" height="509" viewBox="0 0 253 509" fill="none" xmlns="http://www.w3.org/2000/svg">
<g clip-path="url(#clip0_2_355)">
<path d="M246.491 151.552H252.429C252.746 151.552 253 151.806 253 152.12V210.949C253 211.263 252.746 211.517 252.429 211.517H246.491C246.175 211.517 245.92 211.263 245.92 210.949V152.12C245.92 151.806 246.175 151.552 246.491 151.552Z" fill="#3F4B5B"/>
<path d="M0.570915 139.352H6.50941C6.82575 139.352 7.08041 139.605 7.08041 139.92V176.251C7.08041 176.566 6.82565 176.819 6.50941 176.819H0.570915C0.254569 176.819 -8.7738e-05 176.566 -8.7738e-05 176.251V139.92C-8.7738e-05 139.605 0.254675 139.352 0.570915 139.352Z" fill="#3F4B5B"/>
<path d="M0.570915 188.231H6.50941C6.82575 188.231 7.08041 188.485 7.08041 188.799V225.13C7.08041 225.445 6.82565 225.698 6.50941 225.698H0.570915C0.254569 225.698 -8.7738e-05 225.445 -8.7738e-05 225.13V188.799C-8.7738e-05 188.485 0.254675 188.231 0.570915 188.231Z" fill="#3F4B5B"/>
<path d="M6.50942 102.244H0.570922C0.255562 102.244 -8.7738e-05 102.499 -8.7738e-05 102.813V121.145C-8.7738e-05 121.459 0.255562 121.713 0.570922 121.713H6.50942C6.82478 121.713 7.08043 121.459 7.08043 121.145V102.813C7.08043 102.499 6.82478 102.244 6.50942 102.244Z" fill="#3F4B5B"/>
<path d="M246.49 152.291H252.428C252.745 152.291 253 152.545 253 152.859V210.438C253 210.753 252.745 211.006 252.428 211.006H246.49C246.174 211.006 245.919 210.753 245.919 210.438V152.859C245.919 152.545 246.174 152.291 246.49 152.291Z" fill="url(#paint0_linear_2_355)"/>
<path d="M0.633632 140.091H6.57212C6.88847 140.091 7.14313 140.344 7.14313 140.659V175.74C7.14313 176.055 6.88836 176.308 6.57212 176.308H0.633632C0.317287 176.308 0.0626297 176.055 0.0626297 175.74V140.659C0.0626297 140.344 0.317393 140.091 0.633632 140.091V140.091Z" fill="url(#paint1_linear_2_355)"/>
<path d="M0.569984 188.97H6.50848C6.82482 188.97 7.07948 189.224 7.07948 189.538V224.619C7.07948 224.934 6.82472 225.187 6.50848 225.187H0.569984C0.253638 225.187 -0.00101852 224.934 -0.00101852 224.619V189.538C-0.00101852 189.224 0.253744 188.97 0.569984 188.97Z" fill="url(#paint2_linear_2_355)"/>
<path d="M6.50849 102.983H0.569991C0.254631 102.983 -0.00101852 103.237 -0.00101852 103.551V120.633C-0.00101852 120.947 0.254631 121.201 0.569991 121.201H6.50849C6.82385 121.201 7.0795 120.947 7.0795 120.633V103.551C7.0795 103.237 6.82385 102.983 6.50849 102.983Z" fill="url(#paint3_linear_2_355)"/>
<path d="M216.22 0H36.7777C17.4471 0 1.7765 15.6706 1.77651 35.0012L1.77661 473.999C1.77661 493.329 17.4472 509 36.7778 509H216.22C235.551 509 251.222 493.329 251.222 473.999V35.0012C251.222 15.6706 235.551 0 216.22 0Z" fill="#C8E1F8" stroke="#3F4B5B" stroke-width="0.593239" stroke-linecap="round" stroke-linejoin="round"/>
<g filter="url(#filter0_f_2_355)">
<path d="M41.0888 1.77979C20.2702 1.77979 3.55402 18.4626 3.55402 39.2398V469.762C3.55402 490.539 20.2702 507.22 41.0888 507.22H211.909C232.728 507.22 249.444 490.539 249.444 469.762V39.2398C249.444 18.4626 232.728 1.77979 211.909 1.77979H41.0888Z" fill="#A0B8CE"/>
</g>
<path d="M197.542 0V8.34761H201.028V0H197.542ZM1.46173 50.7113V54.1798H251.598V50.7113H1.46173ZM1.46173 455.705V459.173H251.598V455.705H1.46173ZM52.0321 501.812V509H55.518V501.812H52.0321Z" fill="#819ABB"/>
<path d="M59.1555 3.99986C40.5503 3.99986 31.2477 3.99986 24.1413 7.62071C17.8904 10.8057 12.8081 15.8879 9.62304 22.1387C6.00207 29.2451 6.00192 38.5212 6.00162 57.0734C5.9996 180.651 6.00091 362.845 6.00175 451.972C6.00193 470.494 6.00202 479.754 9.62296 486.861C12.808 493.112 17.8903 498.194 24.1412 501.379C31.2477 505 40.5504 505 59.156 505C104.053 505 148.949 505 193.846 505C212.452 505 221.755 505 228.861 501.379C235.112 498.194 240.195 493.112 243.38 486.861C247.001 479.754 247.001 470.451 247.001 451.845V57.1544C247.001 38.5485 247.001 29.2456 243.38 22.1391C240.195 15.8881 235.112 10.8059 228.861 7.62081C221.755 3.99989 212.452 3.99989 193.846 3.99989C178.926 3.99988 164.007 3.99986 149.087 3.99986C148.705 4.00004 148.335 4.13775 148.045 4.38807C147.754 4.6384 147.563 4.9848 147.505 5.3646V5.43536H147.495H106.833C106.79 5.04109 106.604 4.67647 106.311 4.41153C106.017 4.14658 105.636 3.99998 105.241 3.99986H59.1555Z" fill="black" stroke="#434343" stroke-width="0.296621"/>
<path d="M145.911 4.74585H108.411C107.526 4.74585 106.808 5.46551 106.808 6.35326V8.07549C106.808 8.96324 107.526 9.6829 108.411 9.6829H145.911C146.797 9.6829 147.514 8.96324 147.514 8.07549V6.35326C147.514 5.46551 146.797 4.74585 145.911 4.74585Z" fill="black" stroke="#1A1A1A" stroke-width="0.296621" stroke-linecap="round" stroke-linejoin="round"/>
<path d="M109.364 5.75757C108.559 5.75757 107.91 6.40758 107.91 7.21537C107.91 8.02316 108.559 8.67317 109.364 8.67317H144.956C145.761 8.67317 146.409 8.02316 146.409 7.21537C146.409 6.40758 145.761 5.75757 144.956 5.75757H109.364Z" stroke="#292929" stroke-width="0.0912457" stroke-linecap="round"/>
<g filter="url(#filter1_f_2_355)">
<path d="M146.409 7.21701C146.409 7.47371 146.261 7.68182 146.078 7.68182C145.896 7.68182 145.748 7.47371 145.748 7.21701C145.748 6.9603 145.896 6.7522 146.078 6.7522C146.261 6.7522 146.409 6.9603 146.409 7.21701Z" fill="white"/>
<path d="M107.91 7.21725C107.91 7.47396 108.058 7.68206 108.241 7.68206C108.424 7.68206 108.572 7.47396 108.572 7.21725C108.572 6.96054 108.424 6.75244 108.241 6.75244C108.058 6.75244 107.91 6.96054 107.91 7.21725Z" fill="white"/>
</g>
<path d="M149.31 4.15259H104.873V7.71203H149.31V4.15259Z" fill="black"/>
</g>
<defs>
<filter id="filter0_f_2_355" x="2.40488" y="0.630648" width="248.188" height="507.739" filterUnits="userSpaceOnUse" color-interpolation-filters="sRGB">
<feFlood flood-opacity="0" result="BackgroundImageFix"/>
<feBlend mode="normal" in="SourceGraphic" in2="BackgroundImageFix" result="shape"/>
<feGaussianBlur stdDeviation="0.574569" result="effect1_foregroundBlur_2_355"/>
</filter>
<filter id="filter1_f_2_355" x="105.828" y="4.66957" width="42.6641" height="5.09519" filterUnits="userSpaceOnUse" color-interpolation-filters="sRGB">
<feFlood flood-opacity="0" result="BackgroundImageFix"/>
<feBlend mode="normal" in="SourceGraphic" in2="BackgroundImageFix" result="shape"/>
<feGaussianBlur stdDeviation="1.04131" result="effect1_foregroundBlur_2_355"/>
</filter>
<linearGradient id="paint0_linear_2_355" x1="252.999" y1="152.291" x2="252.999" y2="211.033" gradientUnits="userSpaceOnUse">
<stop stop-color="#81AACE"/>
<stop offset="0.1" stop-color="#B9D2E8"/>
<stop offset="0.9" stop-color="#B9D2E8"/>
<stop offset="1" stop-color="#81AACE"/>
</linearGradient>
<linearGradient id="paint1_linear_2_355" x1="7.14314" y1="140.091" x2="7.14314" y2="176.308" gradientUnits="userSpaceOnUse">
<stop stop-color="#81AACE"/>
<stop offset="0.1" stop-color="#B9D2E8"/>
<stop offset="0.9" stop-color="#B9D2E8"/>
<stop offset="1" stop-color="#81AACE"/>
</linearGradient>
<linearGradient id="paint2_linear_2_355" x1="7.07949" y1="188.97" x2="7.07949" y2="225.187" gradientUnits="userSpaceOnUse">
<stop stop-color="#81AACE"/>
<stop offset="0.1" stop-color="#B9D2E8"/>
<stop offset="0.9" stop-color="#B9D2E8"/>
<stop offset="1" stop-color="#81AACE"/>
</linearGradient>
<linearGradient id="paint3_linear_2_355" x1="7.07949" y1="102.983" x2="7.07949" y2="121.201" gradientUnits="userSpaceOnUse">
<stop stop-color="#81AACE"/>
<stop offset="0.1" stop-color="#B9D2E8"/>
<stop offset="0.9" stop-color="#B9D2E8"/>
<stop offset="1" stop-color="#81AACE"/>
</linearGradient>
<clipPath id="clip0_2_355">
<rect width="253" height="509" fill="white"/>
</clipPath>
</defs>
</svg>
