<svg width="36" height="36" viewBox="0 0 36 36" fill="none" xmlns="http://www.w3.org/2000/svg">
<path d="M36 18C36 27.9411 27.9411 36 18 36C8.05887 36 0 27.9411 0 18C0 8.05887 8.05887 0 18 0C27.9411 0 36 8.05887 36 18Z" fill="white"/>
<path fill-rule="evenodd" clip-rule="evenodd" d="M18 32C25.732 32 32 25.732 32 18C32 10.268 25.732 4 18 4C10.268 4 4 10.268 4 18C4 25.732 10.268 32 18 32ZM18 29.6667C24.4433 29.6667 29.6667 24.4433 29.6667 18C29.6667 11.5567 24.4433 6.33333 18 6.33333C11.5567 6.33333 6.33333 11.5567 6.33333 18C6.33333 24.4433 11.5567 29.6667 18 29.6667Z" fill="url(#paint0_angular_141_2668)"/>
<path fill-rule="evenodd" clip-rule="evenodd" d="M30.5785 15.2009C31.2176 15.1184 31.8025 15.5696 31.8849 16.2087C31.9615 16.8027 32 17.401 32 18C32 18.6443 31.4777 19.1667 30.8333 19.1667C30.189 19.1667 29.6667 18.6443 29.6667 18C29.6667 17.5009 29.6346 17.0023 29.5708 16.5072C29.4883 15.8682 29.9395 15.2833 30.5785 15.2009Z" fill="#FC7C06"/>
<defs>
<radialGradient id="paint0_angular_141_2668" cx="0" cy="0" r="1" gradientUnits="userSpaceOnUse" gradientTransform="translate(18 18) scale(18)">
<stop stop-color="#FC7C06" stop-opacity="0"/>
<stop offset="1" stop-color="#FC7C06"/>
</radialGradient>
</defs>
</svg>
