<svg width="17" height="8" viewBox="0 0 17 8" fill="none" xmlns="http://www.w3.org/2000/svg">
<path opacity="0.35" d="M3.64648 0.857178H12.6297C13.8263 0.857178 14.7964 1.82723 14.7964 3.02384V5.06571C14.7964 6.26233 13.8263 7.23238 12.6297 7.23238H3.64648C2.44986 7.23238 1.47981 6.26233 1.47981 5.06571V3.02384C1.47981 1.82723 2.44986 0.857178 3.64648 0.857178Z" stroke="white"/>
<path opacity="0.4" d="M15.9479 2.74316V5.34618C16.4716 5.12572 16.8122 4.61286 16.8122 4.04467C16.8122 3.47648 16.4716 2.96362 15.9479 2.74316" fill="white"/>
<path d="M2.28131 2.99203C2.28131 2.25565 2.87826 1.65869 3.61464 1.65869H12.6615C13.3979 1.65869 13.9949 2.25565 13.9949 2.99202V5.09755C13.9949 5.83392 13.3979 6.43088 12.6615 6.43088H3.61464C2.87826 6.43088 2.28131 5.83393 2.28131 5.09755V2.99203Z" fill="white"/>
</svg>
