<svg width="22" height="21" viewBox="0 0 22 21" fill="none" xmlns="http://www.w3.org/2000/svg">
<path d="M21.9993 15.7225V18.8839C22.0006 19.1774 21.9375 19.4679 21.814 19.7368C21.6906 20.0057 21.5096 20.247 21.2826 20.4454C21.0556 20.6438 20.7876 20.7949 20.4958 20.8889C20.2039 20.9829 19.8947 21.0179 19.5879 20.9914C16.1841 20.6391 12.9145 19.5311 10.0418 17.7563C7.36914 16.1384 5.10319 13.9798 3.40487 11.4336C1.53545 8.68454 0.372066 5.55458 0.00897833 2.29735C-0.0186639 2.00594 0.0176892 1.71225 0.115723 1.43496C0.213756 1.15767 0.371322 0.902866 0.578389 0.686769C0.785455 0.470672 1.03749 0.298016 1.31843 0.179795C1.59938 0.0615741 1.90309 0.000377709 2.21022 0.000102167H5.52869C6.06551 -0.00493117 6.58594 0.176167 6.99297 0.50964C7.4 0.843114 7.66586 1.30621 7.74099 1.81261C7.88106 2.82431 8.14081 3.81767 8.5153 4.77374C8.66413 5.15091 8.69634 5.56082 8.60812 5.9549C8.51989 6.34898 8.31494 6.7107 8.01753 6.99722C7.81757 7.18771 7.71758 7.28296 7.62197 7.4081C7.18333 7.98213 7.10848 8.93993 7.45262 9.57514C7.52764 9.7136 7.58553 9.78918 7.70131 9.94033C8.78918 11.3605 10.1037 12.61 11.597 13.6433C11.8797 13.8389 12.0211 13.9367 12.2341 14.0211C12.761 14.2298 13.4988 14.1722 13.9869 13.8842C14.1843 13.7678 14.341 13.6185 14.6545 13.3199C14.9552 13.0366 15.3349 12.8413 15.7486 12.7573C16.1622 12.6732 16.5925 12.7039 16.9884 12.8457C17.992 13.2025 19.0348 13.4499 20.0967 13.5834C20.6341 13.6556 21.1248 13.9134 21.4756 14.3078C21.8264 14.7022 22.0128 15.2057 21.9993 15.7225Z" fill="white"/>
</svg>
