<svg width="24" height="24" viewBox="0 0 24 24" fill="none" xmlns="http://www.w3.org/2000/svg">
<path d="M0 12C0 6.34315 0 3.51472 1.75736 1.75736C3.51472 0 6.34315 0 12 0C17.6569 0 20.4853 0 22.2426 1.75736C24 3.51472 24 6.34315 24 12C24 17.6569 24 20.4853 22.2426 22.2426C20.4853 24 17.6569 24 12 24C6.34315 24 3.51472 24 1.75736 22.2426C0 20.4853 0 17.6569 0 12Z" fill="white"/>
<circle cx="12" cy="12" r="7.4" stroke="url(#paint0_linear_7_464)" stroke-opacity="0.98" stroke-width="1.2"/>
<circle cx="12" cy="9.60002" r="3.2" fill="url(#paint1_linear_7_464)" fill-opacity="0.98"/>
<path d="M5.60001 16.8C7.05954 14.8569 9.38328 13.6 12.0006 13.6C14.6179 13.6 16.9416 14.8569 18.4012 16.8C16.9416 18.7431 14.6179 20 12.0006 20C9.38328 20 7.05954 18.7431 5.60001 16.8Z" fill="url(#paint2_linear_7_464)" fill-opacity="0.98"/>
<defs>
<linearGradient id="paint0_linear_7_464" x1="12" y1="4" x2="12" y2="20" gradientUnits="userSpaceOnUse">
<stop stop-color="#141B23"/>
<stop offset="1" stop-color="#14222F"/>
</linearGradient>
<linearGradient id="paint1_linear_7_464" x1="12" y1="6.40002" x2="12" y2="12.8" gradientUnits="userSpaceOnUse">
<stop stop-color="#141B23"/>
<stop offset="1" stop-color="#14222F"/>
</linearGradient>
<linearGradient id="paint2_linear_7_464" x1="12.0006" y1="13.6" x2="12.0006" y2="20" gradientUnits="userSpaceOnUse">
<stop stop-color="#141B23"/>
<stop offset="1" stop-color="#14222F"/>
</linearGradient>
</defs>
</svg>
