<svg width="30" height="12" viewBox="0 0 30 12" fill="none" xmlns="http://www.w3.org/2000/svg">
<path d="M3.52944 10.5848L1.29403 8.34943C1.08563 8.14279 0.924838 7.89276 0.821965 7.61535C0.719092 7.33794 0.676401 7.03927 0.696628 6.73846C0.716853 6.43764 0.79955 6.14133 0.939422 5.86849C1.07929 5.59565 1.27326 5.3523 1.50889 5.15403C4.1649 2.99631 7.26037 1.46786 10.5466 0.691481C13.5805 -0.0543386 16.7091 -0.130199 19.7104 0.469287C22.9762 1.09131 26.012 2.48189 28.572 4.52836C28.7976 4.71487 28.9796 4.94825 29.1063 5.21364C29.2331 5.47904 29.3018 5.77063 29.3082 6.06985C29.3146 6.36907 29.2585 6.66937 29.1434 6.95162C29.0283 7.23388 28.8569 7.49191 28.6399 7.70928L26.2934 10.0558C25.9173 10.4389 25.4213 10.6789 24.8977 10.7309C24.3741 10.7829 23.8586 10.6434 23.4474 10.3385C22.633 9.72215 21.7469 9.20341 20.8061 8.79217C20.4341 8.6307 20.1215 8.36363 19.9052 8.02259C19.6889 7.68155 19.5781 7.28085 19.5858 6.86796C19.5925 6.59186 19.5958 6.45381 19.575 6.29771C19.4792 5.58164 18.8549 4.85146 18.1624 4.64564C18.0114 4.60078 17.917 4.58827 17.7283 4.56326C15.9548 4.32829 14.1418 4.37425 12.3552 4.69954C12.017 4.76112 11.8479 4.79191 11.6376 4.88288C11.1174 5.10788 10.6364 5.6703 10.4949 6.21911C10.4377 6.44098 10.4324 6.65737 10.422 7.09015C10.4096 7.50315 10.2792 7.90971 10.0461 8.26164C9.81306 8.61357 9.4871 8.89614 9.10689 9.07584C8.14499 9.53321 7.23269 10.0956 6.3874 10.7521C5.95639 11.081 5.42707 11.2457 4.90012 11.2149C4.37318 11.184 3.88536 10.9598 3.52944 10.5848Z" fill="white"/>
</svg>
