<svg width="16" height="16" viewBox="0 0 16 16" fill="none" xmlns="http://www.w3.org/2000/svg">
<path d="M10.5256 10.613L10.5256 5.0601H11.5981V8.59136C11.5981 8.94014 11.6721 9.28895 12.0189 9.53976C12.3524 9.78089 12.9171 9.91435 13.8447 9.91435C14.556 9.91435 15.125 9.31772 15.125 8.59136V3.27764C15.125 3.07909 15.049 2.88781 14.9123 2.74608L13.6469 1.43398C13.4461 1.22572 13.1185 1.22572 12.9176 1.43398C12.7192 1.6397 12.7192 1.97142 12.9176 2.17714L13.3616 2.63747C13.2344 2.78228 13.1573 2.97423 13.1573 3.18393C13.1573 3.62928 13.5066 3.99811 13.947 3.99811C13.9986 3.99811 14.0492 3.99298 14.0981 3.98319V8.59136C14.0981 8.74337 13.9804 8.85879 13.8447 8.85879C13.5107 8.85879 13.2634 8.84786 13.0803 8.82864C12.8958 8.80926 12.784 8.78212 12.7167 8.75371C12.6528 8.7267 12.6397 8.70328 12.6351 8.69305C12.6269 8.67469 12.625 8.65095 12.625 8.59136V4.70569C12.625 4.32277 12.3245 4.00455 11.9444 4.00455H10.5161C10.5074 3.70692 10.4908 3.43307 10.4588 3.18669C10.3867 2.63054 10.2224 2.08331 9.79229 1.63733C9.36157 1.19071 8.83203 1.01947 8.29356 0.944404C7.79519 0.874927 7.17586 0.874962 6.4687 0.875001L6.46059 0.875002H6.14047L6.13236 0.875001C5.4252 0.874962 4.80587 0.874927 4.3075 0.944404C3.76903 1.01947 3.23949 1.19071 2.80877 1.63733C2.37866 2.08331 2.21435 2.63053 2.14224 3.18669C2.07535 3.70255 2.07539 4.34399 2.07542 5.07791L2.07542 5.0855L2.07543 10.6215C1.98092 10.6364 1.87337 10.6627 1.761 10.711L1.81033 10.8258L1.76099 10.711C1.40804 10.8626 1.129 11.1527 0.983842 11.5161C0.9108 11.6989 0.890377 11.8694 0.882174 11.9941C0.874958 12.1038 0.874981 12.2288 0.875002 12.3404L0.875002 12.3428V12.3428V12.3794V12.3794L0.875002 12.3818C0.874981 12.4934 0.874958 12.6185 0.882174 12.7281C0.890377 12.8528 0.9108 13.0233 0.983843 13.2061C1.129 13.5695 1.40804 13.8596 1.76099 14.0112L1.81033 13.8964L1.761 14.0112C1.93882 14.0876 2.10468 14.109 2.22569 14.1175C2.33191 14.125 2.45285 14.125 2.56037 14.125H2.56288H2.5629H10.099H10.099H10.1016C10.2091 14.125 10.33 14.125 10.4363 14.1175C10.5573 14.109 10.7231 14.0876 10.9009 14.0112C11.2539 13.8596 11.5329 13.5695 11.6781 13.2061C11.7511 13.0233 11.7716 12.8528 11.7798 12.7281C11.787 12.6185 11.787 12.4935 11.7869 12.3818V12.3794V12.3794V12.3428V12.3428V12.3404C11.787 12.2288 11.787 12.1038 11.7798 11.9941C11.7716 11.8694 11.7511 11.6989 11.6781 11.5161C11.5329 11.1527 11.2539 10.8626 10.9009 10.711C10.7637 10.652 10.6335 10.6258 10.5256 10.613ZM3.1023 5.13889C3.1023 4.3498 3.10255 3.77012 3.16011 3.32618C3.21726 2.88538 3.32894 2.59731 3.53805 2.38049C3.74655 2.16429 4.02255 2.04935 4.44554 1.99038C4.8726 1.93084 5.43059 1.93056 6.19195 1.93056H6.40911C7.17047 1.93056 7.72846 1.93084 8.15552 1.99038C8.57851 2.04935 8.85451 2.16429 9.06301 2.38049C9.27212 2.59731 9.3838 2.88538 9.44095 3.32618C9.49851 3.77012 9.49876 4.34981 9.49876 5.13889V10.5694H3.1023V5.13889ZM9.94746 11.6528C9.96951 11.6528 9.9913 11.6514 10.0127 11.6486C10.0353 11.6514 10.0582 11.6528 10.0814 11.6528C10.208 11.6528 10.2964 11.6528 10.3657 11.6577C10.4338 11.6626 10.474 11.6716 10.505 11.6849C10.6049 11.7279 10.6858 11.8109 10.7282 11.9171C10.7417 11.9508 10.7505 11.994 10.7552 12.0653C10.76 12.1378 10.7601 12.23 10.7601 12.3611C10.7601 12.4922 10.76 12.5845 10.7552 12.6569C10.7505 12.7283 10.7417 12.7714 10.7282 12.8051C10.6858 12.9114 10.6049 12.9944 10.505 13.0373C10.474 13.0506 10.4338 13.0597 10.3657 13.0645C10.2964 13.0694 10.208 13.0694 10.0814 13.0694H2.58054C2.45395 13.0694 2.3655 13.0694 2.29621 13.0645C2.22814 13.0597 2.18798 13.0506 2.15695 13.0373C2.05699 12.9944 1.97619 12.9114 1.93374 12.8051C1.92028 12.7714 1.9114 12.7283 1.90671 12.6569C1.90194 12.5845 1.90188 12.4922 1.90188 12.3611C1.90188 12.23 1.90194 12.1378 1.90671 12.0653C1.9114 11.994 1.92028 11.9508 1.93374 11.9171C1.97619 11.8109 2.05699 11.7279 2.15695 11.6849C2.18798 11.6716 2.22814 11.6626 2.29621 11.6577C2.3655 11.6528 2.45395 11.6528 2.58054 11.6528C2.60313 11.6528 2.62543 11.6513 2.64735 11.6484C2.66938 11.6513 2.69179 11.6528 2.71449 11.6528H9.94746Z" fill="url(#paint0_radial_66_2440)" stroke="url(#paint1_radial_66_2440)" stroke-width="0.25" stroke-linecap="round" stroke-linejoin="round"/>
<mask id="path-2-outside-1_66_2440" maskUnits="userSpaceOnUse" x="3.75" y="3" width="5" height="5" fill="black">
<rect fill="white" x="3.75" y="3" width="5" height="5"/>
<path fill-rule="evenodd" clip-rule="evenodd" d="M5.70195 4C5.54795 3.99998 5.4076 3.99997 5.2936 4.01626C5.16837 4.03415 5.03717 4.07609 4.92938 4.19066C4.82159 4.30523 4.78213 4.44469 4.7653 4.57778C4.74997 4.69896 4.74998 4.84813 4.75 5.01182V5.98818C4.74998 6.15187 4.74997 6.30104 4.7653 6.42222C4.78213 6.55531 4.82159 6.69477 4.92938 6.80934C5.03717 6.92391 5.16837 6.96585 5.2936 6.98374C5.4076 7.00003 5.54795 7.00002 5.70195 7H6.79805C6.95205 7.00002 7.0924 7.00003 7.2064 6.98374C7.33163 6.96585 7.46283 6.92391 7.57062 6.80934C7.67841 6.69477 7.71787 6.55531 7.7347 6.42222C7.75003 6.30104 7.75002 6.15187 7.75 5.98818V5.01182C7.75002 4.84813 7.75003 4.69896 7.7347 4.57778C7.71787 4.44469 7.67841 4.30523 7.57062 4.19066C7.46283 4.07609 7.33163 4.03415 7.2064 4.01626C7.0924 3.99997 6.95205 3.99998 6.79805 4H5.70195ZM5.29342 4.57753C5.29342 4.57753 5.29462 4.57593 5.30081 4.57322C5.30947 4.56944 5.32744 4.56351 5.36219 4.55855C5.43773 4.54775 5.54282 4.54717 5.71746 4.54717H6.78254C6.95718 4.54717 7.06227 4.54775 7.13781 4.55855C7.17256 4.56351 7.19053 4.56944 7.19919 4.57322C7.20538 4.57593 7.20658 4.57753 7.20658 4.57753C7.20658 4.57753 7.20815 4.57888 7.21069 4.58546C7.21426 4.59466 7.21983 4.61376 7.2245 4.65069C7.23466 4.73099 7.23521 4.84268 7.23521 5.0283V5.9717C7.23521 6.15732 7.23466 6.26901 7.2245 6.34931C7.21983 6.38624 7.21426 6.40534 7.21069 6.41455C7.20815 6.42113 7.20664 6.42241 7.20664 6.42241C7.20664 6.42241 7.20538 6.42407 7.19919 6.42678C7.19053 6.43056 7.17256 6.43649 7.13781 6.44145C7.06227 6.45225 6.95718 6.45283 6.78254 6.45283H5.71746C5.54282 6.45283 5.43773 6.45225 5.36219 6.44145C5.32744 6.43649 5.30947 6.43056 5.30081 6.42678C5.29462 6.42407 5.29342 6.42247 5.29342 6.42247C5.29342 6.42247 5.29185 6.42112 5.28931 6.41455C5.28574 6.40534 5.28017 6.38624 5.2755 6.34931C5.26534 6.26901 5.26479 6.15732 5.26479 5.9717V5.0283C5.26479 4.84268 5.26534 4.73099 5.2755 4.65069C5.28017 4.61376 5.28574 4.59466 5.28931 4.58546C5.29185 4.57888 5.29342 4.57753 5.29342 4.57753Z"/>
</mask>
<path fill-rule="evenodd" clip-rule="evenodd" d="M5.70195 4C5.54795 3.99998 5.4076 3.99997 5.2936 4.01626C5.16837 4.03415 5.03717 4.07609 4.92938 4.19066C4.82159 4.30523 4.78213 4.44469 4.7653 4.57778C4.74997 4.69896 4.74998 4.84813 4.75 5.01182V5.98818C4.74998 6.15187 4.74997 6.30104 4.7653 6.42222C4.78213 6.55531 4.82159 6.69477 4.92938 6.80934C5.03717 6.92391 5.16837 6.96585 5.2936 6.98374C5.4076 7.00003 5.54795 7.00002 5.70195 7H6.79805C6.95205 7.00002 7.0924 7.00003 7.2064 6.98374C7.33163 6.96585 7.46283 6.92391 7.57062 6.80934C7.67841 6.69477 7.71787 6.55531 7.7347 6.42222C7.75003 6.30104 7.75002 6.15187 7.75 5.98818V5.01182C7.75002 4.84813 7.75003 4.69896 7.7347 4.57778C7.71787 4.44469 7.67841 4.30523 7.57062 4.19066C7.46283 4.07609 7.33163 4.03415 7.2064 4.01626C7.0924 3.99997 6.95205 3.99998 6.79805 4H5.70195ZM5.29342 4.57753C5.29342 4.57753 5.29462 4.57593 5.30081 4.57322C5.30947 4.56944 5.32744 4.56351 5.36219 4.55855C5.43773 4.54775 5.54282 4.54717 5.71746 4.54717H6.78254C6.95718 4.54717 7.06227 4.54775 7.13781 4.55855C7.17256 4.56351 7.19053 4.56944 7.19919 4.57322C7.20538 4.57593 7.20658 4.57753 7.20658 4.57753C7.20658 4.57753 7.20815 4.57888 7.21069 4.58546C7.21426 4.59466 7.21983 4.61376 7.2245 4.65069C7.23466 4.73099 7.23521 4.84268 7.23521 5.0283V5.9717C7.23521 6.15732 7.23466 6.26901 7.2245 6.34931C7.21983 6.38624 7.21426 6.40534 7.21069 6.41455C7.20815 6.42113 7.20664 6.42241 7.20664 6.42241C7.20664 6.42241 7.20538 6.42407 7.19919 6.42678C7.19053 6.43056 7.17256 6.43649 7.13781 6.44145C7.06227 6.45225 6.95718 6.45283 6.78254 6.45283H5.71746C5.54282 6.45283 5.43773 6.45225 5.36219 6.44145C5.32744 6.43649 5.30947 6.43056 5.30081 6.42678C5.29462 6.42407 5.29342 6.42247 5.29342 6.42247C5.29342 6.42247 5.29185 6.42112 5.28931 6.41455C5.28574 6.40534 5.28017 6.38624 5.2755 6.34931C5.26534 6.26901 5.26479 6.15732 5.26479 5.9717V5.0283C5.26479 4.84268 5.26534 4.73099 5.2755 4.65069C5.28017 4.61376 5.28574 4.59466 5.28931 4.58546C5.29185 4.57888 5.29342 4.57753 5.29342 4.57753Z" fill="url(#paint2_radial_66_2440)"/>
<path d="M5.70195 4L5.70192 4.25H5.70195V4ZM5.2936 4.01626L5.32896 4.26374L5.32896 4.26374L5.2936 4.01626ZM4.92938 4.19066L5.11146 4.36197L5.11146 4.36197L4.92938 4.19066ZM4.7653 4.57778L5.01332 4.60916L5.01332 4.60916L4.7653 4.57778ZM4.75 5.01182L5 5.01182L5 5.0118L4.75 5.01182ZM4.75 5.98818L5 5.9882V5.98818H4.75ZM4.7653 6.42222L5.01332 6.39084L5.01332 6.39084L4.7653 6.42222ZM4.92938 6.80934L5.11146 6.63803L5.11146 6.63803L4.92938 6.80934ZM5.2936 6.98374L5.32896 6.73626L5.32896 6.73626L5.2936 6.98374ZM5.70195 7L5.70195 6.75L5.70192 6.75L5.70195 7ZM6.79805 7L6.79808 6.75H6.79805V7ZM7.2064 6.98374L7.17104 6.73626L7.17104 6.73626L7.2064 6.98374ZM7.7347 6.42222L7.48668 6.39084L7.48668 6.39084L7.7347 6.42222ZM7.75 5.98818L7.5 5.98818L7.5 5.9882L7.75 5.98818ZM7.75 5.01182L7.5 5.0118V5.01182H7.75ZM7.7347 4.57778L7.48668 4.60916L7.48668 4.60916L7.7347 4.57778ZM7.57062 4.19066L7.7527 4.01935L7.7527 4.01935L7.57062 4.19066ZM7.2064 4.01626L7.17104 4.26374L7.17104 4.26374L7.2064 4.01626ZM6.79805 4L6.79805 4.25L6.79808 4.25L6.79805 4ZM5.29342 4.57753L5.45625 4.76723C5.46994 4.75548 5.48232 4.74228 5.49317 4.72787L5.29342 4.57753ZM5.30081 4.57322L5.20065 4.34417L5.20065 4.34417L5.30081 4.57322ZM5.36219 4.55855L5.32682 4.31106L5.32682 4.31106L5.36219 4.55855ZM7.13781 4.55855L7.17318 4.31106L7.17318 4.31106L7.13781 4.55855ZM7.19919 4.57322L7.29935 4.34417L7.29935 4.34417L7.19919 4.57322ZM7.20658 4.57753L7.00684 4.72788C7.01768 4.74228 7.03005 4.75547 7.04373 4.76721L7.20658 4.57753ZM7.21069 4.58546L7.44384 4.49521L7.44384 4.49521L7.21069 4.58546ZM7.2245 4.65069L7.47253 4.61932L7.47253 4.61932L7.2245 4.65069ZM7.2245 6.34931L7.47253 6.38068L7.47253 6.38068L7.2245 6.34931ZM7.21069 6.41455L7.44384 6.50479L7.44384 6.50479L7.21069 6.41455ZM7.20664 6.42241L7.0448 6.23186C7.03098 6.2436 7.01847 6.25681 7.0075 6.27126L7.20664 6.42241ZM7.19919 6.42678L7.29935 6.65583L7.29935 6.65583L7.19919 6.42678ZM7.13781 6.44145L7.17318 6.68894L7.17318 6.68894L7.13781 6.44145ZM5.36219 6.44145L5.32682 6.68894L5.32682 6.68894L5.36219 6.44145ZM5.30081 6.42678L5.20065 6.65583L5.20065 6.65583L5.30081 6.42678ZM5.29342 6.42247L5.49317 6.27213C5.48231 6.25771 5.46993 6.24451 5.45623 6.23275L5.29342 6.42247ZM5.28931 6.41455L5.05616 6.50479L5.05616 6.50479L5.28931 6.41455ZM5.2755 6.34931L5.02747 6.38068L5.02747 6.38068L5.2755 6.34931ZM5.2755 4.65069L5.02747 4.61932L5.02747 4.61932L5.2755 4.65069ZM5.28931 4.58546L5.05616 4.49521L5.05616 4.49521L5.28931 4.58546ZM5.32896 4.26374C5.42154 4.25051 5.54195 4.24998 5.70192 4.25L5.70198 3.75C5.55395 3.74998 5.39365 3.74942 5.25823 3.76877L5.32896 4.26374ZM5.11146 4.36197C5.16571 4.30431 5.23414 4.27729 5.32896 4.26374L5.25823 3.76877C5.10261 3.79101 4.90863 3.84787 4.7473 4.01935L5.11146 4.36197ZM5.01332 4.60916C5.02701 4.50091 5.05517 4.42179 5.11146 4.36197L4.7473 4.01935C4.58801 4.18866 4.53725 4.38846 4.51727 4.54641L5.01332 4.60916ZM5 5.0118C4.99998 4.8428 5.0004 4.7113 5.01332 4.60916L4.51727 4.54641C4.49954 4.68661 4.49998 4.85347 4.5 5.01185L5 5.0118ZM5.01332 6.39084C5.0004 6.2887 4.99998 6.1572 5 5.9882L4.5 5.98815C4.49998 6.14653 4.49954 6.31339 4.51727 6.45359L5.01332 6.39084ZM5.11146 6.63803C5.05517 6.57821 5.02701 6.49909 5.01332 6.39084L4.51727 6.45359C4.53725 6.61154 4.58801 6.81134 4.7473 6.98065L5.11146 6.63803ZM5.32896 6.73626C5.23414 6.72271 5.16571 6.69569 5.11146 6.63803L4.7473 6.98065C4.90863 7.15213 5.10261 7.20899 5.25823 7.23123L5.32896 6.73626ZM5.70192 6.75C5.54195 6.75002 5.42154 6.74949 5.32896 6.73626L5.25823 7.23123C5.39365 7.25058 5.55395 7.25002 5.70198 7.25L5.70192 6.75ZM7.17104 6.73626C7.07846 6.74949 6.95805 6.75002 6.79808 6.75L6.79802 7.25C6.94605 7.25002 7.10635 7.25058 7.24177 7.23123L7.17104 6.73626ZM7.38854 6.63803C7.33429 6.69569 7.26586 6.72271 7.17104 6.73626L7.24177 7.23123C7.39739 7.20899 7.59137 7.15213 7.7527 6.98065L7.38854 6.63803ZM7.48668 6.39084C7.47299 6.49909 7.44483 6.57821 7.38854 6.63803L7.7527 6.98065C7.91199 6.81134 7.96275 6.61154 7.98273 6.45359L7.48668 6.39084ZM7.5 5.9882C7.50002 6.1572 7.4996 6.2887 7.48668 6.39084L7.98273 6.45359C8.00046 6.31339 8.00002 6.14653 8 5.98815L7.5 5.9882ZM7.48668 4.60916C7.4996 4.7113 7.50002 4.8428 7.5 5.0118L8 5.01185C8.00002 4.85347 8.00046 4.68661 7.98273 4.54641L7.48668 4.60916ZM7.38854 4.36197C7.44483 4.42179 7.47299 4.50091 7.48668 4.60916L7.98273 4.54641C7.96275 4.38846 7.91199 4.18866 7.7527 4.01935L7.38854 4.36197ZM7.17104 4.26374C7.26586 4.27729 7.3343 4.30431 7.38854 4.36197L7.7527 4.01935C7.59137 3.84787 7.39739 3.79101 7.24177 3.76877L7.17104 4.26374ZM6.79808 4.25C6.95805 4.24998 7.07846 4.25051 7.17104 4.26374L7.24177 3.76877C7.10635 3.74942 6.94605 3.74998 6.79802 3.75L6.79808 4.25ZM5.20065 4.34417C5.18705 4.35011 5.1705 4.35847 5.15323 4.37034C5.1444 4.3764 5.13466 4.38387 5.12469 4.39302C5.11967 4.39763 5.11451 4.40274 5.10931 4.4084C5.10671 4.41123 5.1041 4.41421 5.10149 4.41734C5.10018 4.4189 5.09887 4.4205 5.09757 4.42215C5.09692 4.42297 5.09627 4.4238 5.09562 4.42464C5.09529 4.42506 5.09497 4.42549 5.09464 4.42591C5.09448 4.42612 5.09432 4.42634 5.09416 4.42655C5.09407 4.42666 5.09395 4.42682 5.09391 4.42687C5.09379 4.42704 5.09367 4.4272 5.29342 4.57753C5.49317 4.72787 5.49304 4.72803 5.49292 4.72819C5.49288 4.72824 5.49276 4.7284 5.49268 4.72851C5.49252 4.72872 5.49236 4.72894 5.49219 4.72915C5.49187 4.72958 5.49154 4.73 5.49122 4.73042C5.49057 4.73126 5.48992 4.73209 5.48927 4.73291C5.48797 4.73454 5.48667 4.73614 5.48538 4.73769C5.48279 4.74079 5.48021 4.74374 5.47765 4.74652C5.47255 4.75208 5.46752 4.75704 5.46271 4.76145C5.45316 4.77022 5.44411 4.77712 5.43636 4.78245C5.42123 4.79284 5.40838 4.79904 5.40098 4.80228L5.20065 4.34417ZM5.32682 4.31106C5.27808 4.31803 5.23649 4.3285 5.20065 4.34417L5.40097 4.80228C5.39119 4.80656 5.38505 4.80817 5.38454 4.80831C5.38397 4.80845 5.38782 4.80742 5.39756 4.80603L5.32682 4.31106ZM5.71746 4.29717C5.55078 4.29717 5.42425 4.29714 5.32682 4.31106L5.39756 4.80603C5.45121 4.79837 5.53486 4.79717 5.71746 4.79717V4.29717ZM6.78254 4.29717H5.71746V4.79717H6.78254V4.29717ZM7.17318 4.31106C7.07575 4.29714 6.94922 4.29717 6.78254 4.29717V4.79717C6.96514 4.79717 7.04879 4.79837 7.10244 4.80603L7.17318 4.31106ZM7.29935 4.34417C7.26351 4.3285 7.22192 4.31803 7.17318 4.31106L7.10244 4.80603C7.11218 4.80742 7.11603 4.80845 7.11546 4.80831C7.11495 4.80817 7.10881 4.80656 7.09903 4.80228L7.29935 4.34417ZM7.20658 4.57753C7.40632 4.42719 7.4062 4.42703 7.40608 4.42686C7.40604 4.42681 7.40592 4.42665 7.40584 4.42654C7.40567 4.42633 7.40551 4.42612 7.40535 4.4259C7.40503 4.42548 7.4047 4.42505 7.40438 4.42463C7.40372 4.42379 7.40307 4.42296 7.40242 4.42214C7.40112 4.4205 7.39981 4.41889 7.39851 4.41733C7.39589 4.4142 7.39328 4.41122 7.39068 4.40839C7.38549 4.40273 7.38032 4.39762 7.3753 4.39302C7.36533 4.38387 7.35559 4.3764 7.34677 4.37033C7.32949 4.35847 7.31295 4.35011 7.29935 4.34417L7.09902 4.80228C7.09161 4.79904 7.07877 4.79284 7.06364 4.78245C7.0559 4.77713 7.04685 4.77022 7.03729 4.76146C7.03249 4.75705 7.02746 4.75209 7.02236 4.74653C7.0198 4.74374 7.01722 4.7408 7.01463 4.7377C7.01333 4.73615 7.01203 4.73455 7.01074 4.73292C7.01009 4.7321 7.00944 4.73127 7.00879 4.73043C7.00846 4.73001 7.00814 4.72959 7.00781 4.72916C7.00765 4.72895 7.00749 4.72873 7.00733 4.72852C7.00725 4.72841 7.00713 4.72825 7.00708 4.7282C7.00696 4.72804 7.00684 4.72788 7.20658 4.57753ZM7.44384 4.49521C7.43865 4.4818 7.43134 4.46554 7.42086 4.44843C7.4155 4.43968 7.40885 4.42995 7.40063 4.41987C7.39649 4.41479 7.39186 4.40951 7.38671 4.40416C7.38413 4.40148 7.3814 4.39877 7.37853 4.39605C7.37709 4.39469 7.37562 4.39333 7.3741 4.39196C7.37334 4.39127 7.37258 4.39059 7.3718 4.3899C7.37141 4.38956 7.37102 4.38922 7.37062 4.38888C7.37043 4.38871 7.37023 4.38853 7.37003 4.38836C7.36993 4.38828 7.36978 4.38815 7.36973 4.38811C7.36958 4.38798 7.36943 4.38785 7.20658 4.57753C7.04373 4.76721 7.04358 4.76708 7.04343 4.76696C7.04338 4.76691 7.04323 4.76678 7.04313 4.7667C7.04294 4.76653 7.04274 4.76636 7.04254 4.76619C7.04215 4.76584 7.04176 4.7655 7.04137 4.76516C7.04059 4.76448 7.03983 4.76379 7.03907 4.76311C7.03756 4.76175 7.0361 4.76039 7.03467 4.75904C7.03182 4.75635 7.02914 4.75367 7.0266 4.75104C7.02154 4.74579 7.01706 4.74067 7.01311 4.73582C7.00526 4.72619 6.99915 4.71721 6.99451 4.70963C6.98544 4.69483 6.9802 4.68253 6.97755 4.6757L7.44384 4.49521ZM7.47253 4.61932C7.4663 4.57009 7.45713 4.52955 7.44384 4.49521L6.97755 4.6757C6.97425 4.66717 6.97327 4.66251 6.97353 4.66367C6.97378 4.66475 6.975 4.67039 6.97648 4.68207L7.47253 4.61932ZM7.48521 5.0283C7.48521 4.84975 7.48514 4.71905 7.47253 4.61932L6.97648 4.68207C6.98418 4.74292 6.98521 4.83561 6.98521 5.0283H7.48521ZM7.48521 5.9717V5.0283H6.98521V5.9717H7.48521ZM7.47253 6.38068C7.48514 6.28095 7.48521 6.15025 7.48521 5.9717H6.98521C6.98521 6.16439 6.98418 6.25708 6.97648 6.31794L7.47253 6.38068ZM7.44384 6.50479C7.45713 6.47045 7.4663 6.42991 7.47253 6.38068L6.97648 6.31793C6.975 6.32961 6.97378 6.33525 6.97353 6.33633C6.97327 6.33749 6.97425 6.33283 6.97755 6.3243L7.44384 6.50479ZM7.20664 6.42241C7.36848 6.61295 7.36864 6.61282 7.3688 6.61268C7.36885 6.61264 7.36901 6.6125 7.36911 6.61242C7.36932 6.61224 7.36953 6.61206 7.36974 6.61188C7.37016 6.61152 7.37057 6.61116 7.37098 6.6108C7.3718 6.61008 7.37261 6.60937 7.37341 6.60865C7.37501 6.60722 7.37656 6.60579 7.37807 6.60437C7.38109 6.60153 7.38393 6.59871 7.38661 6.59593C7.39197 6.59039 7.39673 6.58494 7.40095 6.57975C7.40932 6.56944 7.41601 6.55957 7.42131 6.55086C7.43166 6.53384 7.43881 6.51777 7.44384 6.50479L6.97755 6.3243C6.98003 6.3179 6.98516 6.30576 6.99412 6.29103C6.99872 6.28346 7.00487 6.27432 7.01288 6.26446C7.01692 6.25949 7.02155 6.25419 7.02681 6.24874C7.02944 6.24601 7.03225 6.24323 7.03525 6.24041C7.03674 6.239 7.03829 6.23758 7.03988 6.23615C7.04067 6.23544 7.04148 6.23473 7.0423 6.23401C7.04271 6.23365 7.04313 6.23329 7.04354 6.23293C7.04375 6.23276 7.04396 6.23258 7.04417 6.2324C7.04428 6.23231 7.04443 6.23217 7.04449 6.23213C7.04465 6.23199 7.0448 6.23186 7.20664 6.42241ZM7.29935 6.65583C7.3134 6.64969 7.33015 6.64116 7.34752 6.62914C7.35637 6.62301 7.36598 6.61556 7.37576 6.60655C7.38067 6.60203 7.3857 6.59704 7.39072 6.59157C7.39324 6.58883 7.39576 6.58596 7.39827 6.58296C7.39953 6.58146 7.40079 6.57992 7.40204 6.57836C7.40266 6.57757 7.40329 6.57678 7.40391 6.57598C7.40422 6.57558 7.40454 6.57517 7.40485 6.57477C7.405 6.57457 7.40516 6.57436 7.40531 6.57416C7.40539 6.57406 7.40551 6.5739 7.40555 6.57385C7.40566 6.5737 7.40578 6.57355 7.20664 6.42241C7.0075 6.27126 7.00762 6.27111 7.00774 6.27096C7.00777 6.27091 7.00789 6.27075 7.00797 6.27065C7.00812 6.27045 7.00828 6.27025 7.00844 6.27004C7.00875 6.26964 7.00906 6.26924 7.00937 6.26884C7.00999 6.26804 7.01062 6.26725 7.01124 6.26646C7.01248 6.2649 7.01373 6.26338 7.01498 6.26189C7.01747 6.25892 7.01996 6.25609 7.02243 6.2534C7.02736 6.24803 7.03224 6.24319 7.03693 6.23886C7.04628 6.23025 7.05519 6.22339 7.06295 6.21801C7.07815 6.2075 7.09117 6.20115 7.09902 6.19772L7.29935 6.65583ZM7.17318 6.68894C7.22192 6.68197 7.26352 6.6715 7.29935 6.65583L7.09903 6.19772C7.10881 6.19344 7.11495 6.19183 7.11546 6.19169C7.11603 6.19155 7.11218 6.19258 7.10244 6.19397L7.17318 6.68894ZM6.78254 6.70283C6.94922 6.70283 7.07575 6.70286 7.17318 6.68894L7.10244 6.19397C7.04879 6.20163 6.96514 6.20283 6.78254 6.20283V6.70283ZM5.71746 6.70283H6.78254V6.20283H5.71746V6.70283ZM5.32682 6.68894C5.42425 6.70286 5.55078 6.70283 5.71746 6.70283V6.20283C5.53486 6.20283 5.45121 6.20163 5.39756 6.19397L5.32682 6.68894ZM5.20065 6.65583C5.23648 6.6715 5.27808 6.68197 5.32682 6.68894L5.39756 6.19397C5.38782 6.19258 5.38397 6.19155 5.38454 6.19169C5.38505 6.19183 5.39119 6.19344 5.40097 6.19772L5.20065 6.65583ZM5.29342 6.42247C5.09367 6.5728 5.09379 6.57296 5.09391 6.57313C5.09395 6.57318 5.09407 6.57334 5.09416 6.57345C5.09432 6.57366 5.09448 6.57388 5.09464 6.57409C5.09497 6.57451 5.09529 6.57494 5.09562 6.57536C5.09627 6.5762 5.09692 6.57703 5.09757 6.57785C5.09887 6.5795 5.10018 6.5811 5.10149 6.58266C5.1041 6.58579 5.10671 6.58877 5.10931 6.5916C5.11451 6.59726 5.11967 6.60237 5.12469 6.60698C5.13466 6.61613 5.1444 6.6236 5.15323 6.62966C5.1705 6.64153 5.18705 6.64989 5.20065 6.65583L5.40098 6.19772C5.40838 6.20096 5.42123 6.20716 5.43636 6.21755C5.44411 6.22288 5.45316 6.22978 5.46271 6.23855C5.46752 6.24296 5.47255 6.24792 5.47765 6.25348C5.48021 6.25626 5.48279 6.25921 5.48538 6.26231C5.48667 6.26386 5.48797 6.26546 5.48927 6.26709C5.48992 6.26791 5.49057 6.26874 5.49122 6.26958C5.49154 6.27 5.49187 6.27042 5.49219 6.27085C5.49236 6.27106 5.49252 6.27128 5.49268 6.27149C5.49276 6.2716 5.49288 6.27176 5.49292 6.27181C5.49304 6.27197 5.49317 6.27213 5.29342 6.42247ZM5.05616 6.50479C5.06136 6.51821 5.06866 6.53447 5.07915 6.55159C5.08451 6.56034 5.09117 6.57007 5.0994 6.58016C5.10354 6.58524 5.10817 6.59052 5.11332 6.59587C5.11591 6.59855 5.11863 6.60126 5.12151 6.60398C5.12295 6.60534 5.12442 6.60671 5.12594 6.60808C5.1267 6.60876 5.12747 6.60945 5.12824 6.61013C5.12863 6.61047 5.12903 6.61082 5.12942 6.61116C5.12962 6.61133 5.12981 6.6115 5.13001 6.61167C5.13011 6.61176 5.13026 6.61189 5.13031 6.61193C5.13046 6.61206 5.13061 6.61219 5.29342 6.42247C5.45623 6.23275 5.45638 6.23288 5.45653 6.23301C5.45658 6.23305 5.45672 6.23318 5.45682 6.23326C5.45702 6.23343 5.45722 6.23361 5.45742 6.23378C5.45781 6.23412 5.4582 6.23446 5.45859 6.2348C5.45937 6.23549 5.46013 6.23617 5.46089 6.23685C5.4624 6.23821 5.46386 6.23957 5.46529 6.24092C5.46814 6.24362 5.47083 6.2463 5.47337 6.24893C5.47843 6.25418 5.48291 6.2593 5.48687 6.26415C5.49473 6.27378 5.50083 6.28277 5.50548 6.29036C5.51455 6.30516 5.5198 6.31746 5.52245 6.3243L5.05616 6.50479ZM5.02747 6.38068C5.0337 6.42991 5.04287 6.47045 5.05616 6.50479L5.52245 6.3243C5.52575 6.33283 5.52673 6.33749 5.52647 6.33633C5.52622 6.33525 5.525 6.32961 5.52352 6.31793L5.02747 6.38068ZM5.01479 5.9717C5.01479 6.15025 5.01486 6.28095 5.02747 6.38068L5.52352 6.31793C5.51582 6.25708 5.51479 6.16439 5.51479 5.9717H5.01479ZM5.01479 5.0283V5.9717H5.51479V5.0283H5.01479ZM5.02747 4.61932C5.01486 4.71905 5.01479 4.84975 5.01479 5.0283H5.51479C5.51479 4.83561 5.51582 4.74292 5.52352 4.68207L5.02747 4.61932ZM5.05616 4.49521C5.04287 4.52955 5.0337 4.57009 5.02747 4.61932L5.52352 4.68207C5.525 4.67039 5.52622 4.66475 5.52647 4.66367C5.52673 4.66251 5.52575 4.66717 5.52245 4.6757L5.05616 4.49521ZM5.29342 4.57753C5.13059 4.38783 5.13044 4.38796 5.13029 4.38809C5.13024 4.38813 5.13009 4.38826 5.12999 4.38835C5.12979 4.38852 5.12959 4.38869 5.1294 4.38886C5.129 4.3892 5.12861 4.38954 5.12822 4.38989C5.12745 4.39057 5.12668 4.39126 5.12592 4.39194C5.1244 4.39331 5.12293 4.39467 5.12149 4.39603C5.11862 4.39876 5.11589 4.40147 5.11331 4.40415C5.10815 4.4095 5.10353 4.41477 5.09939 4.41985C5.09116 4.42994 5.0845 4.43967 5.07915 4.44842C5.06866 4.46553 5.06136 4.48179 5.05616 4.49521L5.52245 4.6757C5.5198 4.68254 5.51455 4.69483 5.50549 4.70963C5.50084 4.71722 5.49473 4.72621 5.48688 4.73584C5.48293 4.74069 5.47844 4.74581 5.47338 4.75106C5.47085 4.75369 5.46816 4.75636 5.46531 4.75906C5.46388 4.76041 5.46242 4.76177 5.46091 4.76313C5.46015 4.76381 5.45939 4.76449 5.45861 4.76518C5.45822 4.76552 5.45783 4.76586 5.45744 4.7662C5.45724 4.76638 5.45704 4.76655 5.45685 4.76672C5.45675 4.7668 5.4566 4.76693 5.45655 4.76697C5.4564 4.7671 5.45625 4.76723 5.29342 4.57753ZM5.70195 4.25H6.79805V3.75H5.70195V4.25ZM5 5.98818V5.01182H4.5V5.98818H5ZM6.79805 6.75H5.70195V7.25H6.79805V6.75ZM7.5 5.01182V5.98818H8V5.01182H7.5Z" fill="url(#paint3_radial_66_2440)" mask="url(#path-2-outside-1_66_2440)"/>
<defs>
<radialGradient id="paint0_radial_66_2440" cx="0" cy="0" r="1" gradientUnits="userSpaceOnUse" gradientTransform="translate(8 7.5) rotate(90) scale(6.5 7)">
<stop stop-color="#37B0FF"/>
<stop offset="1" stop-color="#0A9CFB"/>
</radialGradient>
<radialGradient id="paint1_radial_66_2440" cx="0" cy="0" r="1" gradientUnits="userSpaceOnUse" gradientTransform="translate(8 7.5) rotate(90) scale(6.5 7)">
<stop stop-color="#37B0FF"/>
<stop offset="1" stop-color="#0A9CFB"/>
</radialGradient>
<radialGradient id="paint2_radial_66_2440" cx="0" cy="0" r="1" gradientUnits="userSpaceOnUse" gradientTransform="translate(6.25 5.5) rotate(90) scale(1.5)">
<stop stop-color="#37B0FF"/>
<stop offset="1" stop-color="#0A9CFB"/>
</radialGradient>
<radialGradient id="paint3_radial_66_2440" cx="0" cy="0" r="1" gradientUnits="userSpaceOnUse" gradientTransform="translate(6.25 5.5) rotate(90) scale(1.5)">
<stop stop-color="#37B0FF"/>
<stop offset="1" stop-color="#0A9CFB"/>
</radialGradient>
</defs>
</svg>
