<svg width="25" height="24" viewBox="0 0 25 24" fill="none" xmlns="http://www.w3.org/2000/svg">
<path d="M0.666626 12C0.666626 6.34315 0.666626 3.51472 2.42399 1.75736C4.18134 0 7.00977 0 12.6666 0V0C18.3235 0 21.1519 0 22.9093 1.75736C24.6666 3.51472 24.6666 6.34315 24.6666 12V12C24.6666 17.6569 24.6666 20.4853 22.9093 22.2426C21.1519 24 18.3235 24 12.6666 24V24C7.00977 24 4.18134 24 2.42399 22.2426C0.666626 20.4853 0.666626 17.6569 0.666626 12V12Z" fill="white"/>
<circle cx="6.66663" cy="6" r="1.5" fill="url(#paint0_linear_7_513)" fill-opacity="0.98"/>
<circle cx="12.6666" cy="6" r="1.5" fill="url(#paint1_linear_7_513)" fill-opacity="0.98"/>
<circle cx="18.6666" cy="6" r="1.5" fill="url(#paint2_linear_7_513)" fill-opacity="0.98"/>
<circle cx="6.66663" cy="12" r="1.5" fill="url(#paint3_linear_7_513)" fill-opacity="0.98"/>
<circle cx="12.6666" cy="12" r="1.5" fill="url(#paint4_linear_7_513)" fill-opacity="0.98"/>
<circle cx="18.6666" cy="12" r="1.5" fill="url(#paint5_linear_7_513)" fill-opacity="0.98"/>
<circle cx="6.66663" cy="18" r="1.5" fill="url(#paint6_linear_7_513)" fill-opacity="0.98"/>
<circle cx="12.6666" cy="18" r="1.5" fill="url(#paint7_linear_7_513)" fill-opacity="0.98"/>
<circle cx="18.6666" cy="18" r="1.5" fill="url(#paint8_linear_7_513)" fill-opacity="0.98"/>
<defs>
<linearGradient id="paint0_linear_7_513" x1="6.66663" y1="4.5" x2="6.66663" y2="7.5" gradientUnits="userSpaceOnUse">
<stop stop-color="#141B23"/>
<stop offset="1" stop-color="#14222F"/>
</linearGradient>
<linearGradient id="paint1_linear_7_513" x1="12.6666" y1="4.5" x2="12.6666" y2="7.5" gradientUnits="userSpaceOnUse">
<stop stop-color="#141B23"/>
<stop offset="1" stop-color="#14222F"/>
</linearGradient>
<linearGradient id="paint2_linear_7_513" x1="18.6666" y1="4.5" x2="18.6666" y2="7.5" gradientUnits="userSpaceOnUse">
<stop stop-color="#141B23"/>
<stop offset="1" stop-color="#14222F"/>
</linearGradient>
<linearGradient id="paint3_linear_7_513" x1="6.66663" y1="10.5" x2="6.66663" y2="13.5" gradientUnits="userSpaceOnUse">
<stop stop-color="#141B23"/>
<stop offset="1" stop-color="#14222F"/>
</linearGradient>
<linearGradient id="paint4_linear_7_513" x1="12.6666" y1="10.5" x2="12.6666" y2="13.5" gradientUnits="userSpaceOnUse">
<stop stop-color="#141B23"/>
<stop offset="1" stop-color="#14222F"/>
</linearGradient>
<linearGradient id="paint5_linear_7_513" x1="18.6666" y1="10.5" x2="18.6666" y2="13.5" gradientUnits="userSpaceOnUse">
<stop stop-color="#141B23"/>
<stop offset="1" stop-color="#14222F"/>
</linearGradient>
<linearGradient id="paint6_linear_7_513" x1="6.66663" y1="16.5" x2="6.66663" y2="19.5" gradientUnits="userSpaceOnUse">
<stop stop-color="#141B23"/>
<stop offset="1" stop-color="#14222F"/>
</linearGradient>
<linearGradient id="paint7_linear_7_513" x1="12.6666" y1="16.5" x2="12.6666" y2="19.5" gradientUnits="userSpaceOnUse">
<stop stop-color="#141B23"/>
<stop offset="1" stop-color="#14222F"/>
</linearGradient>
<linearGradient id="paint8_linear_7_513" x1="18.6666" y1="16.5" x2="18.6666" y2="19.5" gradientUnits="userSpaceOnUse">
<stop stop-color="#141B23"/>
<stop offset="1" stop-color="#14222F"/>
</linearGradient>
</defs>
</svg>
