<svg width="16" height="16" viewBox="0 0 16 16" fill="none" xmlns="http://www.w3.org/2000/svg">
<rect x="1" y="4" width="14" height="8" rx="2" stroke="url(#paint0_radial_2_2375)" stroke-width="1.5" stroke-linecap="round" stroke-linejoin="round"/>
<rect x="1" y="4" width="14" height="8" rx="2" stroke="black" stroke-opacity="0.6" stroke-width="1.5" stroke-linecap="round" stroke-linejoin="round"/>
<path d="M2.57574 9.57574C2.34142 9.81005 2.34142 10.1899 2.57574 10.4243C2.81005 10.6586 3.18995 10.6586 3.42427 10.4243L2.57574 9.57574ZM7.42426 6.42426C7.65858 6.18995 7.65858 5.81005 7.42426 5.57574C7.18995 5.34142 6.81005 5.34142 6.57574 5.57574L7.42426 6.42426ZM6.57574 10.4243C6.81005 10.6586 7.18995 10.6586 7.42426 10.4243C7.65858 10.1899 7.65858 9.81005 7.42426 9.57574L6.57574 10.4243ZM3.42426 5.57574C3.18995 5.34142 2.81005 5.34142 2.57574 5.57574C2.34142 5.81005 2.34142 6.18995 2.57574 6.42426L3.42426 5.57574ZM3.42427 10.4243L7.42426 6.42426L6.57574 5.57574L2.57574 9.57574L3.42427 10.4243ZM7.42426 9.57574L3.42426 5.57574L2.57574 6.42426L6.57574 10.4243L7.42426 9.57574Z" fill="url(#paint1_radial_2_2375)"/>
<path d="M2.57574 9.57574C2.34142 9.81005 2.34142 10.1899 2.57574 10.4243C2.81005 10.6586 3.18995 10.6586 3.42427 10.4243L2.57574 9.57574ZM7.42426 6.42426C7.65858 6.18995 7.65858 5.81005 7.42426 5.57574C7.18995 5.34142 6.81005 5.34142 6.57574 5.57574L7.42426 6.42426ZM6.57574 10.4243C6.81005 10.6586 7.18995 10.6586 7.42426 10.4243C7.65858 10.1899 7.65858 9.81005 7.42426 9.57574L6.57574 10.4243ZM3.42426 5.57574C3.18995 5.34142 2.81005 5.34142 2.57574 5.57574C2.34142 5.81005 2.34142 6.18995 2.57574 6.42426L3.42426 5.57574ZM3.42427 10.4243L7.42426 6.42426L6.57574 5.57574L2.57574 9.57574L3.42427 10.4243ZM7.42426 9.57574L3.42426 5.57574L2.57574 6.42426L6.57574 10.4243L7.42426 9.57574Z" fill="black" fill-opacity="0.6"/>
<path d="M8.46967 9.46967C8.17678 9.76256 8.17678 10.2374 8.46967 10.5303C8.76256 10.8232 9.23744 10.8232 9.53033 10.5303L8.46967 9.46967ZM13.5303 6.53033C13.8232 6.23744 13.8232 5.76256 13.5303 5.46967C13.2374 5.17678 12.7626 5.17678 12.4697 5.46967L13.5303 6.53033ZM12.4697 10.5303C12.7626 10.8232 13.2374 10.8232 13.5303 10.5303C13.8232 10.2374 13.8232 9.76256 13.5303 9.46967L12.4697 10.5303ZM9.53033 5.46967C9.23744 5.17678 8.76256 5.17678 8.46967 5.46967C8.17678 5.76256 8.17678 6.23744 8.46967 6.53033L9.53033 5.46967ZM9.53033 10.5303L13.5303 6.53033L12.4697 5.46967L8.46967 9.46967L9.53033 10.5303ZM13.5303 9.46967L9.53033 5.46967L8.46967 6.53033L12.4697 10.5303L13.5303 9.46967Z" fill="url(#paint2_radial_2_2375)"/>
<path d="M8.46967 9.46967C8.17678 9.76256 8.17678 10.2374 8.46967 10.5303C8.76256 10.8232 9.23744 10.8232 9.53033 10.5303L8.46967 9.46967ZM13.5303 6.53033C13.8232 6.23744 13.8232 5.76256 13.5303 5.46967C13.2374 5.17678 12.7626 5.17678 12.4697 5.46967L13.5303 6.53033ZM12.4697 10.5303C12.7626 10.8232 13.2374 10.8232 13.5303 10.5303C13.8232 10.2374 13.8232 9.76256 13.5303 9.46967L12.4697 10.5303ZM9.53033 5.46967C9.23744 5.17678 8.76256 5.17678 8.46967 5.46967C8.17678 5.76256 8.17678 6.23744 8.46967 6.53033L9.53033 5.46967ZM9.53033 10.5303L13.5303 6.53033L12.4697 5.46967L8.46967 9.46967L9.53033 10.5303ZM13.5303 9.46967L9.53033 5.46967L8.46967 6.53033L12.4697 10.5303L13.5303 9.46967Z" fill="black" fill-opacity="0.6"/>
<defs>
<radialGradient id="paint0_radial_2_2375" cx="0" cy="0" r="1" gradientUnits="userSpaceOnUse" gradientTransform="translate(8 4) rotate(90) scale(8 14)">
<stop stop-color="#D2AD29"/>
<stop offset="1" stop-color="#FC7C06"/>
</radialGradient>
<radialGradient id="paint1_radial_2_2375" cx="0" cy="0" r="1" gradientUnits="userSpaceOnUse" gradientTransform="translate(5 6) rotate(90) scale(4)">
<stop stop-color="#D2AD29"/>
<stop offset="1" stop-color="#FC7C06"/>
</radialGradient>
<radialGradient id="paint2_radial_2_2375" cx="0" cy="0" r="1" gradientUnits="userSpaceOnUse" gradientTransform="translate(11 6) rotate(90) scale(4)">
<stop stop-color="#D2AD29"/>
<stop offset="1" stop-color="#FC7C06"/>
</radialGradient>
</defs>
</svg>
