<svg width="16" height="16" viewBox="0 0 16 16" fill="none" xmlns="http://www.w3.org/2000/svg">
<path d="M14.6666 11.28L13.9169 11.2614C13.9167 11.2676 13.9166 11.2738 13.9166 11.28H14.6666ZM14.6666 13.28H13.9166L13.9166 13.283L14.6666 13.28ZM13.2133 14.6133L13.1323 15.3591L13.1458 15.3603L13.2133 14.6133ZM7.45998 12.5667L7.86807 11.9374L7.86222 11.9336L7.45998 12.5667ZM3.45998 8.56665L4.09301 8.16439L4.08944 8.15888L3.45998 8.56665ZM1.41331 2.78665L0.666261 2.85416L0.667503 2.86585L1.41331 2.78665ZM2.73998 1.33332V0.583316L2.73927 0.583317L2.73998 1.33332ZM4.73998 1.33332V2.08335L4.74736 2.08328L4.73998 1.33332ZM6.07331 2.47998L6.8169 2.38191L6.81593 2.37502L6.07331 2.47998ZM6.53998 4.35332L5.8373 4.61552L5.83794 4.61721L6.53998 4.35332ZM6.23998 5.75998L6.77031 6.29032L6.77327 6.28734L6.23998 5.75998ZM5.39331 6.60665L4.86298 6.07632C4.62424 6.31505 4.57445 6.68388 4.74134 6.97737L5.39331 6.60665ZM9.39331 10.6067L9.02259 11.2586C9.31608 11.4255 9.68491 11.3757 9.92364 11.137L9.39331 10.6067ZM10.24 9.75998L9.71261 9.22669L9.70965 9.22965L10.24 9.75998ZM11.6466 9.45998L11.3827 10.162L11.3844 10.1627L11.6466 9.45998ZM13.52 9.92665L13.6248 9.18397L13.618 9.18309L13.52 9.92665ZM9.46965 5.46965C9.17675 5.76255 9.17675 6.23742 9.46965 6.53031C9.76254 6.82321 10.2374 6.82321 10.5303 6.53031L9.46965 5.46965ZM14 1.99998H14.75C14.75 1.58577 14.4142 1.24998 14 1.24998V1.99998ZM13.25 5.99998C13.25 6.4142 13.5858 6.74998 14 6.74998C14.4142 6.74998 14.75 6.4142 14.75 5.99998H13.25ZM9.99998 1.24998C9.58576 1.24998 9.24998 1.58577 9.24998 1.99998C9.24998 2.4142 9.58576 2.74998 9.99998 2.74998V1.24998ZM13.9166 11.28V13.28H15.4166V11.28H13.9166ZM13.9166 13.283C13.917 13.3643 13.9003 13.4447 13.8678 13.5191L15.2422 14.12C15.3584 13.8542 15.4178 13.567 15.4166 13.2769L13.9166 13.283ZM13.8678 13.5191C13.8353 13.5935 13.7875 13.6603 13.7277 13.7152L14.7417 14.8205C14.9555 14.6244 15.1259 14.3858 15.2422 14.12L13.8678 13.5191ZM13.7277 13.7152C13.6678 13.7702 13.5971 13.812 13.5202 13.838L14.0007 15.2589C14.2756 15.166 14.5279 15.0167 14.7417 14.8205L13.7277 13.7152ZM13.5202 13.838C13.4433 13.864 13.3617 13.8737 13.2808 13.8664L13.1458 15.3603C13.4347 15.3864 13.7259 15.3519 14.0007 15.2589L13.5202 13.838ZM13.2943 13.8677C11.3595 13.6575 9.50096 12.9963 7.86805 11.9374L7.0519 13.1959C8.88165 14.3825 10.9642 15.1234 13.1323 15.3589L13.2943 13.8677ZM7.86222 11.9336C6.34437 10.9691 5.05749 9.68226 4.09299 8.16441L2.82697 8.96889C3.90957 10.6726 5.35402 12.1171 7.05773 13.1997L7.86222 11.9336ZM4.08944 8.15888C3.0268 6.51855 2.3655 4.65097 2.15912 2.70745L0.667503 2.86585C0.898771 5.04365 1.63979 7.13636 2.83052 8.97443L4.08944 8.15888ZM2.16027 2.71915C2.15298 2.63849 2.16256 2.55721 2.18841 2.48046L0.766874 2.00168C0.674556 2.27578 0.640322 2.56609 0.666353 2.85415L2.16027 2.71915ZM2.18841 2.48046C2.21426 2.40371 2.25581 2.33318 2.31041 2.27337L1.20257 1.26209C1.00757 1.4757 0.859192 1.72758 0.766874 2.00168L2.18841 2.48046ZM2.31041 2.27337C2.365 2.21356 2.43146 2.16577 2.50554 2.13305L1.89947 0.760944C1.6349 0.877806 1.39756 1.04848 1.20257 1.26209L2.31041 2.27337ZM2.50554 2.13305C2.57962 2.10033 2.6597 2.08339 2.74068 2.08332L2.73927 0.583317C2.45004 0.583589 2.16404 0.644082 1.89947 0.760944L2.50554 2.13305ZM2.73998 2.08332H4.73998V0.583317H2.73998V2.08332ZM4.74736 2.08328C4.8889 2.08189 5.02613 2.13201 5.13345 2.22431L6.11151 1.08703C5.72821 0.757393 5.23812 0.578377 4.73259 0.583353L4.74736 2.08328ZM5.13345 2.22431C5.24078 2.31661 5.31088 2.44479 5.33069 2.58495L6.81593 2.37502C6.74517 1.87444 6.49482 1.41667 6.11151 1.08703L5.13345 2.22431ZM5.32975 2.57805C5.42156 3.27417 5.59183 3.95768 5.8373 4.61552L7.24265 4.09111C7.03672 3.53926 6.89389 2.96588 6.81687 2.38192L5.32975 2.57805ZM5.83794 4.61721C5.87718 4.72161 5.88567 4.83506 5.86241 4.94414L7.32942 5.257C7.4125 4.86746 7.38216 4.46226 7.24202 4.08942L5.83794 4.61721ZM5.86241 4.94414C5.83915 5.05321 5.78511 5.15333 5.70669 5.23263L6.77327 6.28734C7.05333 6.00412 7.24634 5.64655 7.32942 5.257L5.86241 4.94414ZM5.70965 5.22965L4.86298 6.07632L5.92364 7.13698L6.77031 6.29031L5.70965 5.22965ZM4.74134 6.97737C5.7571 8.76375 7.2362 10.2429 9.02259 11.2586L9.76403 9.95468C8.21235 9.07237 6.92759 7.78761 6.04528 6.23593L4.74134 6.97737ZM9.92364 11.137L10.7703 10.2903L9.70965 9.22965L8.86298 10.0763L9.92364 11.137ZM10.7673 10.2933C10.8466 10.2149 10.9468 10.1608 11.0558 10.1376L10.743 8.67054C10.3534 8.75362 9.99584 8.94663 9.71262 9.22669L10.7673 10.2933ZM11.0558 10.1376C11.1649 10.1143 11.2784 10.1228 11.3827 10.162L11.9105 8.75794C11.5377 8.6178 11.1325 8.58746 10.743 8.67054L11.0558 10.1376ZM11.3844 10.1627C12.0423 10.4081 12.7258 10.5784 13.4219 10.6702L13.618 9.18309C13.0341 9.10607 12.4607 8.96324 11.9088 8.75731L11.3844 10.1627ZM13.4152 10.6693C13.5569 10.6893 13.6863 10.7606 13.7788 10.8698L14.9232 9.90014C14.5929 9.51026 14.1308 9.25539 13.6247 9.184L13.4152 10.6693ZM13.7788 10.8698C13.8713 10.979 13.9204 11.1183 13.9169 11.2614L15.4164 11.2986C15.4291 10.7877 15.2536 10.29 14.9232 9.90014L13.7788 10.8698ZM10.5303 6.53031L14.5303 2.53031L13.4696 1.46965L9.46965 5.46965L10.5303 6.53031ZM13.25 1.99998V5.99998H14.75V1.99998H13.25ZM14 1.24998H9.99998V2.74998H14V1.24998Z" fill="#72889E"/>
</svg>
