<svg width="10" height="10" viewBox="0 0 10 10" fill="none" xmlns="http://www.w3.org/2000/svg">
<path d="M9.97988 7.48692V8.99232C9.98045 9.13208 9.95182 9.27041 9.89583 9.39845C9.83984 9.5265 9.75773 9.64145 9.65475 9.73592C9.55177 9.8304 9.43019 9.90233 9.2978 9.9471C9.16542 9.99188 9.02514 10.0085 8.88595 9.99593C7.34183 9.82814 5.85859 9.3005 4.55541 8.4554C3.34297 7.68496 2.31504 6.65703 1.5446 5.44459C0.696547 4.13549 0.168786 2.64504 0.00407297 1.09397C-0.00846679 0.95521 0.00802461 0.815355 0.052497 0.683313C0.0969693 0.551271 0.168448 0.429936 0.262383 0.327033C0.356318 0.224129 0.47065 0.141913 0.598101 0.0856168C0.725551 0.029321 0.863327 0.000179861 1.00266 4.86508e-05H2.50806C2.75159 -0.00234817 2.98768 0.0838889 3.17233 0.242686C3.35697 0.401483 3.47758 0.622004 3.51166 0.863146C3.5752 1.34491 3.69304 1.81794 3.86292 2.27321C3.93044 2.45281 3.94505 2.64801 3.90503 2.83567C3.86501 3.02332 3.77203 3.19557 3.63711 3.33201C3.26068 3.70844 3.17499 4.29577 3.48831 4.72615C3.98112 5.40308 4.57685 5.99881 5.25378 6.49161C5.68416 6.80493 6.27149 6.71924 6.64792 6.34281C6.78435 6.2079 6.9566 6.11492 7.14426 6.0749C7.33192 6.03488 7.52711 6.04949 7.70672 6.117C8.16199 6.28689 8.63502 6.40473 9.11678 6.46826C9.36054 6.50265 9.58316 6.62543 9.74229 6.81325C9.90143 7.00107 9.98598 7.24082 9.97988 7.48692Z" fill="white"/>
</svg>
