<svg width="12" height="8" viewBox="0 0 12 8" fill="none" xmlns="http://www.w3.org/2000/svg">
<path fill-rule="evenodd" clip-rule="evenodd" d="M10.4126 0.573486H9.76184C9.40244 0.573486 9.11109 0.864838 9.11109 1.22424V6.8641C9.11109 7.2235 9.40244 7.51485 9.76184 7.51485H10.4126C10.772 7.51485 11.0633 7.2235 11.0633 6.8641V1.22424C11.0633 0.864838 10.772 0.573486 10.4126 0.573486ZM6.72499 2.09191H7.37575C7.73515 2.09191 8.0265 2.38326 8.0265 2.74266V6.8641C8.0265 7.2235 7.73515 7.51485 7.37575 7.51485H6.72499C6.36559 7.51485 6.07424 7.2235 6.07424 6.8641V2.74266C6.07424 2.38326 6.36559 2.09191 6.72499 2.09191ZM4.3389 3.61033H3.68815C3.32875 3.61033 3.0374 3.90168 3.0374 4.26109V6.8641C3.0374 7.2235 3.32875 7.51485 3.68815 7.51485H4.3389C4.6983 7.51485 4.98965 7.2235 4.98965 6.8641V4.26109C4.98965 3.90168 4.6983 3.61033 4.3389 3.61033ZM1.30205 4.91184H0.651302C0.291901 4.91184 0.000549316 5.20319 0.000549316 5.56259V6.8641C0.000549316 7.2235 0.291901 7.51485 0.651302 7.51485H1.30205C1.66146 7.51485 1.95281 7.2235 1.95281 6.8641V5.56259C1.95281 5.20319 1.66146 4.91184 1.30205 4.91184Z" fill="white"/>
</svg>
