<svg width="14" height="13" viewBox="0 0 14 13" fill="none" xmlns="http://www.w3.org/2000/svg">
<path d="M7.4538 10.4319L7.18152 11.1307L7.4538 10.4319C7.16195 10.3182 6.83805 10.3182 6.5462 10.4319L6.81848 11.1307L6.5462 10.4319L3.70123 11.5404L3.87631 8.49211C3.89427 8.1794 3.79417 7.87135 3.59584 7.62892L1.66247 5.26573L4.61565 4.49028C4.9186 4.41073 5.18064 4.22034 5.34992 3.9568L7 1.38779L8.65008 3.9568C8.81936 4.22034 9.0814 4.41073 9.38435 4.49028L12.3375 5.26573L10.4042 7.62892C10.2058 7.87135 10.1057 8.1794 10.1237 8.49211L10.2988 11.5404L7.4538 10.4319Z" stroke="#72889E" stroke-width="1.5" stroke-linecap="round" stroke-linejoin="round"/>
</svg>
