<svg width="16" height="16" viewBox="0 0 16 16" fill="none" xmlns="http://www.w3.org/2000/svg">
<g clip-path="url(#clip0_66_2447)">
<path d="M8.48523 3.12134L12.0208 6.65687C12.8018 7.43792 12.8018 8.70425 12.0208 9.4853L10.6065 10.8995C9.8255 11.6806 8.55917 11.6806 7.77812 10.8995L4.24259 7.36398" stroke="url(#paint0_radial_66_2447)" stroke-width="1.5" stroke-linecap="round" stroke-linejoin="round"/>
<path d="M12.7279 7.36396L13.435 6.65686C14.2161 5.87581 14.2161 4.60948 13.435 3.82843L11.3137 1.70711" stroke="url(#paint1_radial_66_2447)" stroke-width="1.5" stroke-linecap="round" stroke-linejoin="round"/>
<rect x="7.7782" y="5.24261" width="4" height="2" rx="0.5" transform="rotate(45 7.7782 5.24261)" fill="url(#paint2_radial_66_2447)"/>
<rect x="4.94971" y="8.07104" width="4" height="3" rx="1" transform="rotate(45 4.94971 8.07104)" fill="url(#paint3_radial_66_2447)"/>
<rect x="4.94971" y="9.48529" width="1" height="5" rx="0.5" transform="rotate(45 4.94971 9.48529)" fill="url(#paint4_radial_66_2447)"/>
</g>
<defs>
<radialGradient id="paint0_radial_66_2447" cx="0" cy="0" r="1" gradientUnits="userSpaceOnUse" gradientTransform="translate(8.83878 7.71753) rotate(135) scale(3 3.5)">
<stop stop-color="#37B0FF"/>
<stop offset="1" stop-color="#0A9CFB"/>
</radialGradient>
<radialGradient id="paint1_radial_66_2447" cx="0" cy="0" r="1" gradientUnits="userSpaceOnUse" gradientTransform="translate(12.0208 4.53554) rotate(-45) scale(1.5 2.5)">
<stop stop-color="#37B0FF"/>
<stop offset="1" stop-color="#0A9CFB"/>
</radialGradient>
<radialGradient id="paint2_radial_66_2447" cx="0" cy="0" r="1" gradientUnits="userSpaceOnUse" gradientTransform="translate(9.7782 6.24261) rotate(90) scale(1 2)">
<stop stop-color="#37B0FF"/>
<stop offset="1" stop-color="#0A9CFB"/>
</radialGradient>
<radialGradient id="paint3_radial_66_2447" cx="0" cy="0" r="1" gradientUnits="userSpaceOnUse" gradientTransform="translate(6.94971 9.57104) rotate(90) scale(1.5 2)">
<stop stop-color="#37B0FF"/>
<stop offset="1" stop-color="#0A9CFB"/>
</radialGradient>
<radialGradient id="paint4_radial_66_2447" cx="0" cy="0" r="1" gradientUnits="userSpaceOnUse" gradientTransform="translate(5.44971 11.9853) rotate(90) scale(2.5 0.5)">
<stop stop-color="#37B0FF"/>
<stop offset="1" stop-color="#0A9CFB"/>
</radialGradient>
<clipPath id="clip0_66_2447">
<rect width="16" height="16" fill="white"/>
</clipPath>
</defs>
</svg>
