<svg width="16" height="16" viewBox="0 0 16 16" fill="none" xmlns="http://www.w3.org/2000/svg">
<path d="M13.3333 14V12.6667C13.3333 11.9594 13.0524 11.2811 12.5523 10.781C12.0522 10.281 11.3739 10 10.6667 10H5.33334C4.62609 10 3.94782 10.281 3.44772 10.781C2.94762 11.2811 2.66667 11.9594 2.66667 12.6667V14" stroke="url(#paint0_radial_2_2367)" stroke-width="1.2" stroke-linecap="round" stroke-linejoin="round"/>
<path d="M13.3333 14V12.6667C13.3333 11.9594 13.0524 11.2811 12.5523 10.781C12.0522 10.281 11.3739 10 10.6667 10H5.33334C4.62609 10 3.94782 10.281 3.44772 10.781C2.94762 11.2811 2.66667 11.9594 2.66667 12.6667V14" stroke="black" stroke-opacity="0.6" stroke-width="1.2" stroke-linecap="round" stroke-linejoin="round"/>
<path d="M7.99999 7.33333C9.47275 7.33333 10.6667 6.13943 10.6667 4.66667C10.6667 3.19391 9.47275 2 7.99999 2C6.52724 2 5.33333 3.19391 5.33333 4.66667C5.33333 6.13943 6.52724 7.33333 7.99999 7.33333Z" stroke="url(#paint1_radial_2_2367)" stroke-width="1.5" stroke-linecap="round" stroke-linejoin="round"/>
<path d="M7.99999 7.33333C9.47275 7.33333 10.6667 6.13943 10.6667 4.66667C10.6667 3.19391 9.47275 2 7.99999 2C6.52724 2 5.33333 3.19391 5.33333 4.66667C5.33333 6.13943 6.52724 7.33333 7.99999 7.33333Z" stroke="black" stroke-opacity="0.6" stroke-width="1.5" stroke-linecap="round" stroke-linejoin="round"/>
<defs>
<radialGradient id="paint0_radial_2_2367" cx="0" cy="0" r="1" gradientUnits="userSpaceOnUse" gradientTransform="translate(8 10) rotate(90) scale(4 10.6667)">
<stop stop-color="#D2AD29"/>
<stop offset="1" stop-color="#FC7C06"/>
</radialGradient>
<radialGradient id="paint1_radial_2_2367" cx="0" cy="0" r="1" gradientUnits="userSpaceOnUse" gradientTransform="translate(7.99999 2) rotate(90) scale(5.33333)">
<stop stop-color="#D2AD29"/>
<stop offset="1" stop-color="#FC7C06"/>
</radialGradient>
</defs>
</svg>
