<svg width="48" height="60" viewBox="0 0 48 60" fill="none" xmlns="http://www.w3.org/2000/svg">
<path fill-rule="evenodd" clip-rule="evenodd" d="M21.4926 0.756563C35.7175 -0.429773 47.7004 10.273 48.0002 24.0729L48.0007 24.1307C48.0007 28.9545 46.4898 33.4627 43.8117 37.3342L43.7851 37.3721L30.25 56.2295C30.2231 56.267 30.1954 56.3036 30.1666 56.3397C27.0555 60.2316 20.9365 60.4711 17.947 56.2179L4.40761 37.3541C0.878292 32.3504 -0.976322 26.0331 0.523483 19.3472C2.37283 9.3223 11.114 1.94236 21.4112 0.764616C21.4382 0.761523 21.4654 0.758838 21.4926 0.756563ZM21.9765 6.06808C13.7349 7.02746 7.11634 12.8946 5.76044 20.3579C5.75351 20.3959 5.74576 20.4339 5.73717 20.4716C4.60715 25.4478 5.9339 30.2606 8.75977 34.2713L22.3072 53.1461C23.0292 54.1781 24.8297 54.4199 25.9637 53.0549L39.4382 34.2816C41.5236 31.2599 42.6615 27.8169 42.6674 24.1596C42.4204 13.551 33.2005 5.15418 21.9765 6.06808Z" fill="white" fill-opacity="0.1"/>
<path fill-rule="evenodd" clip-rule="evenodd" d="M24.0007 19.0659C21.2025 19.0659 18.934 21.3344 18.934 24.1326C18.934 26.9308 21.2025 29.1993 24.0007 29.1993C26.7989 29.1993 29.0674 26.9308 29.0674 24.1326C29.0674 21.3344 26.7989 19.0659 24.0007 19.0659ZM13.6007 24.1326C13.6007 18.3888 18.2569 13.7326 24.0007 13.7326C29.7445 13.7326 34.4007 18.3888 34.4007 24.1326C34.4007 29.8764 29.7445 34.5326 24.0007 34.5326C18.2569 34.5326 13.6007 29.8764 13.6007 24.1326Z" fill="white" fill-opacity="0.2"/>
</svg>
