<svg width="60" height="48" viewBox="0 0 60 48" fill="none" xmlns="http://www.w3.org/2000/svg">
<path d="M56.6432 3.2C54.7594 1.86667 52.3372 1.86667 50.4535 2.66667L39.1505 7.46667L22.4652 0.266667C21.9269 1.49012e-07 21.6579 0 21.3888 0H21.1196C20.8504 0 20.5813 1.49012e-07 20.3123 0.266667L6.04899 6.13333C2.81957 7.46667 0.666626 10.6667 0.666626 14.4V38.9333C0.666626 41.3333 1.74311 43.4667 3.89605 44.8C4.97251 45.6 6.31811 45.8667 7.66369 45.8667C8.47105 45.8667 9.54751 45.6 10.3549 45.3333L15.4681 43.2C16.8136 42.6667 17.352 41.0667 16.8136 39.7333C16.2755 38.4 14.6608 37.8667 13.3152 38.4L8.20193 40.5333C7.66369 40.8 7.12545 40.5333 6.85633 40.5333C6.58723 40.2667 6.04899 39.7333 6.04899 38.9333V14.4C6.04899 12.8 6.85633 11.4667 8.20193 10.9333L18.4284 6.66667V37.8667C18.4284 38.9333 18.9667 40 20.0432 40.2667L38.0741 47.7333C38.3431 47.7333 38.6122 48 38.8814 48C39.1505 48 39.4197 48 39.6887 47.7333L53.6828 41.8667C56.9123 40.5333 59.0652 37.0667 59.0652 33.6V9.06667C59.8727 6.66667 58.796 4.53333 56.6432 3.2ZM24.08 6.66667L36.7285 12V17.6V41.3333L24.08 36V6.66667ZM54.4903 33.6C54.4903 35.2 53.6828 36.5333 52.3372 37.0667L42.1107 41.3333V17.6V12L52.6064 7.46667C53.1447 7.2 53.6828 7.46667 53.952 7.46667C53.952 7.73333 54.4903 8.26667 54.4903 9.06667V33.6Z" fill="white" fill-opacity="0.1"/>
</svg>
