<svg width="16" height="16" viewBox="0 0 16 16" fill="none" xmlns="http://www.w3.org/2000/svg">
<path d="M10.6666 2H0.666626V10.6667H10.6666V2Z" stroke="#0A9CFB" stroke-width="1.2" stroke-linecap="round" stroke-linejoin="round"/>
<path d="M10.6666 5.33337H13.3333L15.3333 7.33337V10.6667H10.6666V5.33337Z" stroke="#0A9CFB" stroke-width="1.2" stroke-linecap="round" stroke-linejoin="round"/>
<path d="M3.66667 14C4.58714 14 5.33333 13.2538 5.33333 12.3333C5.33333 11.4128 4.58714 10.6666 3.66667 10.6666C2.74619 10.6666 2 11.4128 2 12.3333C2 13.2538 2.74619 14 3.66667 14Z" stroke="#0A9CFB" stroke-width="1.2" stroke-linecap="round" stroke-linejoin="round"/>
<path d="M12.3333 14C13.2538 14 14 13.2538 14 12.3333C14 11.4128 13.2538 10.6666 12.3333 10.6666C11.4128 10.6666 10.6666 11.4128 10.6666 12.3333C10.6666 13.2538 11.4128 14 12.3333 14Z" stroke="#0A9CFB" stroke-width="1.2" stroke-linecap="round" stroke-linejoin="round"/>
</svg>
