<svg width="25" height="24" viewBox="0 0 25 24" fill="none" xmlns="http://www.w3.org/2000/svg">
<path d="M0.333313 12C0.333313 6.34315 0.333313 3.51472 2.09067 1.75736C3.84803 0 6.67646 0 12.3333 0C17.9902 0 20.8186 0 22.576 1.75736C24.3333 3.51472 24.3333 6.34315 24.3333 12C24.3333 17.6569 24.3333 20.4853 22.576 22.2426C20.8186 24 17.9902 24 12.3333 24C6.67646 24 3.84803 24 2.09067 22.2426C0.333313 20.4853 0.333313 17.6569 0.333313 12Z" fill="white"/>
<circle cx="12.3333" cy="12" r="7.4" stroke="url(#paint0_linear_7_504)" stroke-opacity="0.98" stroke-width="1.2"/>
<rect x="11.5333" y="6.40002" width="1.6" height="6.4" rx="0.8" fill="url(#paint1_linear_7_504)" fill-opacity="0.98"/>
<rect x="8.33331" y="12.8" width="1.6" height="4.8" rx="0.8" transform="rotate(-90 8.33331 12.8)" fill="url(#paint2_linear_7_504)" fill-opacity="0.98"/>
<defs>
<linearGradient id="paint0_linear_7_504" x1="12.3333" y1="4" x2="12.3333" y2="20" gradientUnits="userSpaceOnUse">
<stop stop-color="#141B23"/>
<stop offset="1" stop-color="#14222F"/>
</linearGradient>
<linearGradient id="paint1_linear_7_504" x1="12.3333" y1="6.40002" x2="12.3333" y2="12.8" gradientUnits="userSpaceOnUse">
<stop stop-color="#141B23"/>
<stop offset="1" stop-color="#14222F"/>
</linearGradient>
<linearGradient id="paint2_linear_7_504" x1="9.13331" y1="12.8" x2="9.13331" y2="17.6" gradientUnits="userSpaceOnUse">
<stop stop-color="#141B23"/>
<stop offset="1" stop-color="#14222F"/>
</linearGradient>
</defs>
</svg>
