<svg width="42" height="42" viewBox="0 0 42 42" fill="none" xmlns="http://www.w3.org/2000/svg">
<g clip-path="url(#clip0_2_1369)">
<rect width="42" height="42" rx="21" fill="url(#paint0_radial_2_1369)"/>
<g filter="url(#filter0_d_2_1369)">
<path d="M15.9221 30.7212C15.7982 30.7955 15.7564 30.9556 15.8289 31.0812L16.8677 32.8805C17.5147 34.0011 18.9476 34.3851 20.0682 33.7381C21.1888 33.0911 21.5727 31.6582 20.9258 30.5376L19.8869 28.7383C19.8137 28.6114 19.6515 28.568 19.5246 28.6412L19.262 28.7928C19.226 28.8139 19.1943 28.8321 19.1689 28.8467L19.1538 28.8554L19.1412 28.8626L18.1798 29.4177C18.1084 29.4589 18.0376 29.4998 17.9675 29.5402L16.3486 30.4749C16.3126 30.496 16.2809 30.5142 16.2554 30.5288C16.2451 30.5347 16.2358 30.54 16.2277 30.5447L15.9221 30.7212Z" fill="white"/>
<path d="M24.2977 8.34379C24.1246 8.3354 23.9728 8.49838 23.6785 8.81413L16.3116 16.7199C16.1364 16.9079 16.0488 17.0019 16.0354 17.1199C16.022 17.238 16.0862 17.3493 16.2147 17.5718L20.5475 25.0764C20.676 25.299 20.7402 25.4102 20.8492 25.4576C20.8769 25.4697 20.9057 25.4768 20.9373 25.4798C20.9484 25.4808 20.9598 25.4814 20.9716 25.4814C21.0589 25.4818 21.1693 25.4563 21.3336 25.4185L31.8636 22.9914C32.2983 22.8912 32.5156 22.8411 32.5881 22.6745C32.6606 22.5078 32.5491 22.3147 32.326 21.9285L24.8301 8.94513C24.6071 8.55887 24.4956 8.36575 24.3151 8.34521C24.3093 8.34455 24.3035 8.34408 24.2977 8.34379Z" fill="white"/>
<path d="M6.78933 22.8009C6.90103 22.6229 7.04102 22.4605 7.21818 22.2996C7.20174 22.4986 7.19707 22.699 7.20444 22.8999C7.23239 23.6621 7.47042 24.3226 7.74709 24.9112C8.00497 25.4598 8.36811 26.0887 8.77035 26.7853L8.8462 26.9167C9.24836 27.6133 9.61143 28.2423 9.9576 28.7399C10.329 29.2738 10.782 29.8102 11.4281 30.2155C11.5984 30.3223 11.7743 30.4185 11.9548 30.5037C11.7269 30.5767 11.5163 30.6167 11.3062 30.6244C10.7045 30.6465 10.11 30.4872 9.59997 30.1672C9.38671 30.0335 9.19592 29.8591 9.00331 29.6289C8.62506 29.1769 8.23982 28.5097 7.66371 27.5118C6.79422 26.0058 6.35948 25.2528 6.33214 24.5072C6.31008 23.9055 6.46936 23.311 6.78933 22.8009Z" fill="white"/>
<path d="M15.5996 28.5136C15.0518 28.7858 14.6346 28.9272 14.2197 28.9424C13.618 28.9644 13.0235 28.8051 12.5135 28.4852C11.8814 28.0887 11.4467 27.3357 10.5772 25.8297C9.70769 24.3237 9.27295 23.5707 9.24561 22.8251C9.22354 22.2234 9.38283 21.6289 9.70279 21.1189C9.92342 20.7671 10.2544 20.4765 10.7642 20.1381L12.6893 18.9915L13.2539 18.6655C13.5373 18.5018 13.6791 18.42 13.8186 18.4532C13.8251 18.4548 13.8316 18.4565 13.8381 18.4585C13.8768 18.47 13.911 18.4895 13.9439 18.5179C14.028 18.5904 14.1034 18.7209 14.221 18.9246L18.379 26.1265C18.379 26.1265 18.379 26.1265 18.379 26.1265C18.409 26.1785 18.4363 26.2258 18.4606 26.2691C18.5689 26.4619 18.6184 26.5773 18.5913 26.6913C18.5897 26.6978 18.588 26.7043 18.5861 26.7108C18.5451 26.8482 18.4034 26.93 18.1199 27.0937L17.5529 27.421L15.6004 28.5132C15.6002 28.5133 15.5999 28.5135 15.5996 28.5136C15.5997 28.5136 15.5996 28.5136 15.5996 28.5136Z" fill="white"/>
<rect x="29.8965" y="13.6351" width="6.00746" height="2.04254" rx="1.02127" transform="rotate(-30 29.8965 13.6351)" fill="white"/>
<rect x="27.7548" y="9.92554" width="3.00373" height="2.04254" rx="1.02127" transform="rotate(-75 27.7548 9.92554)" fill="white"/>
<rect width="3.00373" height="2.04254" rx="1.02127" transform="matrix(1 0 0 -1 33.4135 19.7266)" fill="white"/>
</g>
</g>
<defs>
<filter id="filter0_d_2_1369" x="2.33008" y="7.25342" width="38.0872" height="34.799" filterUnits="userSpaceOnUse" color-interpolation-filters="sRGB">
<feFlood flood-opacity="0" result="BackgroundImageFix"/>
<feColorMatrix in="SourceAlpha" type="matrix" values="0 0 0 0 0 0 0 0 0 0 0 0 0 0 0 0 0 0 127 0" result="hardAlpha"/>
<feOffset dy="4"/>
<feGaussianBlur stdDeviation="2"/>
<feComposite in2="hardAlpha" operator="out"/>
<feColorMatrix type="matrix" values="0 0 0 0 0 0 0 0 0 0 0 0 0 0 0 0 0 0 0.15 0"/>
<feBlend mode="normal" in2="BackgroundImageFix" result="effect1_dropShadow_2_1369"/>
<feBlend mode="normal" in="SourceGraphic" in2="effect1_dropShadow_2_1369" result="shape"/>
</filter>
<radialGradient id="paint0_radial_2_1369" cx="0" cy="0" r="1" gradientUnits="userSpaceOnUse" gradientTransform="translate(21) rotate(90) scale(42)">
<stop stop-color="#FF8660"/>
<stop offset="1" stop-color="#FC5006"/>
</radialGradient>
<clipPath id="clip0_2_1369">
<rect width="42" height="42" rx="21" fill="white"/>
</clipPath>
</defs>
</svg>
