<svg width="42" height="42" viewBox="0 0 42 42" fill="none" xmlns="http://www.w3.org/2000/svg">
<rect width="42" height="42" rx="21" fill="url(#paint0_linear_2_1391)"/>
<g filter="url(#filter0_d_2_1391)">
<path d="M33.5103 27.2294V31.0155C33.5117 31.367 33.4397 31.7149 33.2989 32.0369C33.1581 32.3589 32.9516 32.648 32.6926 32.8856C32.4336 33.1232 32.1278 33.3041 31.7949 33.4167C31.4619 33.5293 31.1091 33.5712 30.7591 33.5395C26.8756 33.1176 23.1453 31.7906 19.8679 29.6651C16.8186 27.7275 14.2334 25.1423 12.2958 22.093C10.1629 18.8007 8.83562 15.0522 8.42138 11.1513C8.38984 10.8024 8.43131 10.4506 8.54316 10.1185C8.65501 9.78646 8.83478 9.4813 9.07102 9.2225C9.30726 8.9637 9.59481 8.75693 9.91534 8.61535C10.2359 8.47377 10.5824 8.40048 10.9328 8.40015H14.7188C15.3313 8.39412 15.9251 8.611 16.3895 9.01037C16.8538 9.40974 17.1572 9.96435 17.2429 10.5708C17.4027 11.7824 17.699 12.9721 18.1263 14.1171C18.2961 14.5688 18.3328 15.0597 18.2322 15.5317C18.1315 16.0036 17.8977 16.4368 17.5584 16.7799C17.0712 17.2671 16.8276 17.5107 16.6791 17.8254C16.4873 18.232 16.4421 18.8093 16.5684 19.2407C16.6662 19.5747 16.8388 19.8118 17.1842 20.2862C18.4236 21.9886 19.9218 23.4869 21.6242 24.7263C22.0986 25.0716 22.3358 25.2443 22.6697 25.342C23.1012 25.4683 23.6784 25.4231 24.085 25.2313C24.3997 25.0828 24.6433 24.8392 25.1305 24.352C25.4736 24.0127 25.9068 23.7789 26.3788 23.6782C26.8507 23.5776 27.3416 23.6143 27.7933 23.7841C28.9383 24.2114 30.128 24.5077 31.3396 24.6675C31.9527 24.754 32.5125 25.0628 32.9128 25.5352C33.313 26.0075 33.5256 26.6105 33.5103 27.2294Z" fill="white"/>
</g>
<defs>
<filter id="filter0_d_2_1391" x="4.41113" y="8.40002" width="33.1" height="33.1498" filterUnits="userSpaceOnUse" color-interpolation-filters="sRGB">
<feFlood flood-opacity="0" result="BackgroundImageFix"/>
<feColorMatrix in="SourceAlpha" type="matrix" values="0 0 0 0 0 0 0 0 0 0 0 0 0 0 0 0 0 0 127 0" result="hardAlpha"/>
<feOffset dy="4"/>
<feGaussianBlur stdDeviation="2"/>
<feComposite in2="hardAlpha" operator="out"/>
<feColorMatrix type="matrix" values="0 0 0 0 0 0 0 0 0 0 0 0 0 0 0 0 0 0 0.15 0"/>
<feBlend mode="normal" in2="BackgroundImageFix" result="effect1_dropShadow_2_1391"/>
<feBlend mode="normal" in="SourceGraphic" in2="effect1_dropShadow_2_1391" result="shape"/>
</filter>
<linearGradient id="paint0_linear_2_1391" x1="21" y1="6.25849e-07" x2="21" y2="42" gradientUnits="userSpaceOnUse">
<stop stop-color="#65F681"/>
<stop offset="1" stop-color="#12C339"/>
</linearGradient>
</defs>
</svg>
