<svg width="42" height="42" viewBox="0 0 42 42" fill="none" xmlns="http://www.w3.org/2000/svg">
<rect width="42" height="42" rx="21" fill="url(#paint0_linear_2_1377)"/>
<g clip-path="url(#clip0_2_1377)">
<g filter="url(#filter0_d_2_1377)">
<path d="M9.80369 8.65009C9.80369 8.3941 9.79064 8.13872 9.81239 7.88643C9.81736 7.82474 9.92176 7.74024 9.99881 7.71618C10.0933 7.68657 10.2039 7.70816 10.3095 7.70816H30.8816C31.0239 7.70816 31.1663 7.72296 31.3701 7.73407C31.3701 8.45394 31.357 9.15283 31.3701 9.84741C31.4057 11.4611 31.4492 13.0746 31.5006 14.6879C31.5099 14.9889 31.3993 15.145 31.0867 15.1665C30.9823 15.1739 30.8798 15.2387 30.7797 15.2844C30.4734 15.4244 30.313 15.3183 30.2142 14.9988C30.0789 14.5344 29.9086 14.0807 29.7047 13.6417C29.4383 13.0864 29.1389 12.5473 28.808 12.0274C28.1281 10.9633 27.2084 10.1965 25.996 9.74501C25.4695 9.55476 24.912 9.46275 24.3518 9.4736C22.9536 9.4736 21.5554 9.46311 20.1566 9.45694C19.6178 9.45386 19.5824 9.47174 19.5674 10.0238C19.5364 11.1749 19.5233 12.3265 19.5053 13.4782C19.4668 15.6347 19.4291 17.7911 19.3922 19.9472C19.3847 20.3888 19.3922 20.4061 19.8353 20.387C20.9402 20.3395 22.05 20.3253 23.1462 20.1982C23.7906 20.1236 24.2859 19.6801 24.6376 19.1311C25.0366 18.505 25.3367 17.8357 25.4492 17.0955C25.5194 16.6347 26.0085 16.3929 26.4497 16.6112C26.5044 16.6384 26.5423 16.7389 26.5503 16.8098C26.5598 16.9536 26.5615 17.0977 26.5553 17.2416C26.5553 19.8534 26.5553 22.4648 26.5553 25.0757V25.4662C26.267 25.4662 25.9786 25.5167 25.7257 25.4452C25.6014 25.4094 25.4852 25.1608 25.451 24.9918C25.2845 24.1541 24.9875 23.3793 24.4288 22.7205C23.9708 22.1796 23.4004 21.8526 22.6702 21.8212C21.7604 21.7823 20.8525 21.7188 19.9428 21.6799C19.4332 21.6577 19.3903 21.7083 19.3934 22.211C19.4009 23.4139 19.3978 24.6168 19.4276 25.8196C19.4525 26.835 19.4842 27.8522 19.5768 28.8632C19.6513 29.6799 19.7408 30.496 19.9937 31.2942C20.2336 32.0492 20.6108 32.6513 21.3441 32.9788C21.5927 33.0893 21.8692 33.1337 22.137 33.1867C22.4978 33.2675 22.8633 33.3258 23.2313 33.3613C23.4762 33.3792 23.5626 33.4847 23.57 33.6993C23.5737 33.8227 23.6029 33.9578 23.5626 34.0657C23.5114 34.1626 23.4273 34.2382 23.3252 34.2792C23.2475 34.3143 23.1387 34.2884 23.0486 34.2884C18.7704 34.2884 14.4921 34.287 10.2138 34.2841C10.0858 34.2841 9.85278 34.2292 9.84656 34.1792C9.81798 33.9325 9.84657 33.6746 9.86334 33.4217C9.86334 33.4038 9.93046 33.3823 9.96899 33.3755C10.271 33.3212 10.573 33.2669 10.8763 33.2169C11.9072 33.0492 12.6666 32.5908 13.0326 31.5335C13.3489 30.6206 13.4552 29.6978 13.5067 28.7478C13.7621 23.9851 13.7 19.2174 13.6037 14.4504C13.5825 13.3703 13.4489 12.2865 13.2812 11.2181C13.195 10.616 12.9361 10.0514 12.5355 9.59141C12.1346 9.14111 11.6294 8.90856 11.044 8.82652C10.6445 8.77162 10.2499 8.71363 9.80369 8.65009Z" fill="white"/>
</g>
</g>
<defs>
<filter id="filter0_d_2_1377" x="5.71092" y="5.65612" width="29.8791" height="34.7748" filterUnits="userSpaceOnUse" color-interpolation-filters="sRGB">
<feFlood flood-opacity="0" result="BackgroundImageFix"/>
<feColorMatrix in="SourceAlpha" type="matrix" values="0 0 0 0 0 0 0 0 0 0 0 0 0 0 0 0 0 0 127 0" result="hardAlpha"/>
<feOffset dy="2.04444"/>
<feGaussianBlur stdDeviation="2.04444"/>
<feComposite in2="hardAlpha" operator="out"/>
<feColorMatrix type="matrix" values="0 0 0 0 0 0 0 0 0 0 0 0 0 0 0 0 0 0 0.15 0"/>
<feBlend mode="normal" in2="BackgroundImageFix" result="effect1_dropShadow_2_1377"/>
<feBlend mode="normal" in="SourceGraphic" in2="effect1_dropShadow_2_1377" result="shape"/>
</filter>
<linearGradient id="paint0_linear_2_1377" x1="21" y1="0" x2="21" y2="42" gradientUnits="userSpaceOnUse">
<stop stop-color="#303030"/>
<stop offset="1" stop-color="#121212"/>
</linearGradient>
<clipPath id="clip0_2_1377">
<rect width="21.7" height="26.6" fill="white" transform="translate(9.80005 7.69995)"/>
</clipPath>
</defs>
</svg>
