<svg width="42" height="43" viewBox="0 0 42 43" fill="none" xmlns="http://www.w3.org/2000/svg">
<rect width="42" height="42" rx="21" fill="url(#paint0_linear_2_1399)"/>
<g filter="url(#filter0_d_2_1399)">
<path d="M13.7986 32.1425L12.6 34.3L16.0428 32.8655C16.5385 32.659 17.0795 32.5901 17.6128 32.6528C18.491 32.756 19.9108 32.9 21 32.9C28.6222 32.9 36.4 28.35 36.4 20.65C36.4 12.95 30.1 8.40002 21 8.40002C11.9 8.40002 5.59998 12.95 5.59998 20.65C5.59998 26.6436 10.7318 29.5581 13.306 30.7116C13.8557 30.958 14.0912 31.6159 13.7986 32.1425Z" fill="white"/>
</g>
<defs>
<filter id="filter0_d_2_1399" x="1.59998" y="8.40002" width="38.8" height="33.9" filterUnits="userSpaceOnUse" color-interpolation-filters="sRGB">
<feFlood flood-opacity="0" result="BackgroundImageFix"/>
<feColorMatrix in="SourceAlpha" type="matrix" values="0 0 0 0 0 0 0 0 0 0 0 0 0 0 0 0 0 0 127 0" result="hardAlpha"/>
<feOffset dy="4"/>
<feGaussianBlur stdDeviation="2"/>
<feComposite in2="hardAlpha" operator="out"/>
<feColorMatrix type="matrix" values="0 0 0 0 0 0 0 0 0 0 0 0 0 0 0 0 0 0 0.15 0"/>
<feBlend mode="normal" in2="BackgroundImageFix" result="effect1_dropShadow_2_1399"/>
<feBlend mode="normal" in="SourceGraphic" in2="effect1_dropShadow_2_1399" result="shape"/>
</filter>
<linearGradient id="paint0_linear_2_1399" x1="21" y1="6.25849e-07" x2="21" y2="42" gradientUnits="userSpaceOnUse">
<stop stop-color="#65F681"/>
<stop offset="1" stop-color="#12C339"/>
</linearGradient>
</defs>
</svg>
