<svg width="42" height="42" viewBox="0 0 42 42" fill="none" xmlns="http://www.w3.org/2000/svg">
<rect width="42" height="42" rx="21" fill="url(#paint0_linear_2_1383)"/>
<rect width="42" height="42" rx="21" fill="url(#paint1_linear_2_1383)"/>
<circle opacity="0.1" cx="21.35" cy="21.35" r="12.25" fill="white"/>
<circle opacity="0.1" cx="21" cy="21" r="14.7" fill="white"/>
<circle opacity="0.1" cx="21" cy="21" r="17.5" fill="white"/>
<g filter="url(#filter0_d_2_1383)">
<path d="M33.9037 27.2509C32.998 29.5891 31.627 30.6935 29.7026 30.6361C27.8981 30.5891 26.6382 29.4462 25.8637 27.0981L21.3973 27.0413L16.824 26.9914C16.5602 28.2096 16.0193 29.2429 14.9575 29.9526C12.6578 31.4703 9.6626 30.3545 8.96578 27.6407C8.75054 26.9499 7.95882 26.8921 7.95882 26.8921C6.70011 26.8921 5.68293 25.8677 5.70011 24.6091C5.72793 22.5698 5.77896 19.7224 5.85785 18.506C5.91886 17.7311 6.13283 16.9772 6.48675 16.2901C7.16051 14.9671 7.96975 13.7194 8.71983 12.4367C9.41653 11.251 10.4359 10.6549 11.7863 10.6697C14.8719 10.7041 17.9565 10.7423 21.0401 10.7844C21.5346 10.7824 22.0238 10.8894 22.4747 11.0982C22.9256 11.307 23.3276 11.6127 23.6535 11.9946C25.0219 13.5181 26.4291 15.0226 27.7827 16.5534C27.9308 16.7341 28.1177 16.8771 28.3288 16.9711C28.5398 17.0651 28.7692 17.1074 28.9989 17.0948C30.3807 17.0925 31.7618 17.1344 33.1437 17.1674C34.9237 17.2113 36.3253 18.5311 36.3899 20.3513C36.4495 21.995 36.416 23.6438 36.3489 25.2872C36.2993 26.5101 35.5044 27.0974 33.9037 27.2509ZM15.1991 25.2881C15.0513 24.9588 14.8409 24.6631 14.5802 24.4183C14.3196 24.1735 14.014 23.9845 13.6814 23.8624C13.3487 23.7403 12.9957 23.6875 12.6431 23.7072C12.2905 23.7269 11.9453 23.8187 11.6278 23.9771C10.2049 24.6529 9.67437 26.2196 10.3748 27.6791C11.0753 29.1385 12.5369 29.6457 13.9289 28.953C14.2496 28.8022 14.5377 28.5872 14.7761 28.3204C15.0146 28.0537 15.1986 27.7407 15.3174 27.3998C15.4362 27.0589 15.4873 26.6971 15.4678 26.3355C15.4482 25.9739 15.3585 25.6199 15.2037 25.2943L15.1991 25.2881ZM32.294 25.2735C32.1433 24.9463 31.9308 24.6531 31.6688 24.4109C31.4067 24.1687 31.1004 23.9824 30.7676 23.8627C30.4349 23.7431 30.0823 23.6926 29.7304 23.7142C29.3786 23.7357 29.0345 23.8289 28.7182 23.9883C27.3304 24.6688 26.802 26.1872 27.4589 27.6343C28.1383 29.1226 29.612 29.6559 31.0497 28.934C31.3692 28.7831 31.6558 28.5677 31.8923 28.3006C32.1289 28.0336 32.3106 27.7203 32.4266 27.3796C32.5427 27.0388 32.5906 26.6775 32.5677 26.3172C32.5448 25.9569 32.4514 25.6049 32.2932 25.2823L32.294 25.2735Z" fill="white"/>
</g>
<defs>
<filter id="filter0_d_2_1383" x="1.69995" y="10.6694" width="38.7209" height="27.9689" filterUnits="userSpaceOnUse" color-interpolation-filters="sRGB">
<feFlood flood-opacity="0" result="BackgroundImageFix"/>
<feColorMatrix in="SourceAlpha" type="matrix" values="0 0 0 0 0 0 0 0 0 0 0 0 0 0 0 0 0 0 127 0" result="hardAlpha"/>
<feOffset dy="4"/>
<feGaussianBlur stdDeviation="2"/>
<feComposite in2="hardAlpha" operator="out"/>
<feColorMatrix type="matrix" values="0 0 0 0 0 0 0 0 0 0 0 0 0 0 0 0 0 0 0.2 0"/>
<feBlend mode="normal" in2="BackgroundImageFix" result="effect1_dropShadow_2_1383"/>
<feBlend mode="normal" in="SourceGraphic" in2="effect1_dropShadow_2_1383" result="shape"/>
</filter>
<linearGradient id="paint0_linear_2_1383" x1="21" y1="42" x2="21" y2="-6.5192e-08" gradientUnits="userSpaceOnUse">
<stop stop-color="white"/>
<stop offset="0.0001" stop-color="#EAEAEA"/>
<stop offset="1" stop-color="#F7F7F7"/>
</linearGradient>
<linearGradient id="paint1_linear_2_1383" x1="21" y1="6.25849e-07" x2="21" y2="42" gradientUnits="userSpaceOnUse">
<stop stop-color="#1154FF"/>
<stop offset="1" stop-color="#4B03C1"/>
</linearGradient>
</defs>
</svg>
